<?xml version="1.0" standalone="no"?>
<!DOCTYPE svg PUBLIC "-//W3C//DTD SVG 1.1//EN" "http://www.w3.org/Graphics/SVG/1.1/DTD/svg11.dtd" >
<svg xmlns="http://www.w3.org/2000/svg" xmlns:xlink="http://www.w3.org/1999/xlink" version="1.1">
<metadata>
Created by FontForge 20201107 at Thu Dec 09 17:30:16 2021
 By illop
</metadata>
<defs>
<font id="fontawesome-free" horiz-adv-x="512" >
  <font-face 
    font-family="Font Awesome 5 Free"
    font-weight="400"
    font-stretch="normal"
    units-per-em="512"
    panose-1="2 0 5 3 0 0 0 0 0 0"
    ascent="409"
    descent="-103"
    bbox="-0.0663682 -64.0528 640.013 448.1"
    underline-thickness="0"
    underline-position="0"
    unicode-range="U+F000-F63E"
  />
    <missing-glyph />
    <glyph glyph-name="address-book" unicode="&#xf2b9;" horiz-adv-x="448" 
d="M436 288c6.6 0 12 5.4 12 12v40c0 6.6 -5.4 12 -12 12h-20v48c0 26.5 -21.5 48 -48 48h-320c-26.5 0 -48 -21.5 -48 -48v-416c0 -26.5 21.5 -48 48 -48h320c26.5 0 48 21.5 48 48v48h20c6.6 0 12 5.4 12 12v40c0 6.6 -5.4 12 -12 12h-20v64h20c6.6 0 12 5.4 12 12v40
c0 6.6 -5.4 12 -12 12h-20v64h20zM368 -16h-320v416h320v-416zM208 192c35.3 0 64 28.7 64 64s-28.7 64 -64 64s-64 -28.7 -64 -64s28.7 -64 64 -64zM118.4 64h179.2c12.4 0 22.4 8.6 22.4 19.2v19.2c0 31.8 -30.1 57.6 -67.2 57.6c-10.8 0 -18.7 -8 -44.8 -8
c-26.9 0 -33.4 8 -44.8 8c-37.1 0 -67.2 -25.8 -67.2 -57.6v-19.2c0 -10.6 10 -19.2 22.4 -19.2z" />
    <glyph glyph-name="align-justify" unicode="&#xf039;" horiz-adv-x="448" 
d="M0 368v32c0 6.627 5.373 12 12 12h424c6.627 0 12 -5.373 12 -12v-32c0 -6.627 -5.373 -12 -12 -12h-424c-6.627 0 -12 5.373 -12 12zM12 228h424c6.627 0 12 5.373 12 12v32c0 6.627 -5.373 12 -12 12h-424c-6.627 0 -12 -5.373 -12 -12v-32c0 -6.627 5.373 -12 12 -12z
M12 -28h424c6.627 0 12 5.373 12 12v32c0 6.627 -5.373 12 -12 12h-424c-6.627 0 -12 -5.373 -12 -12v-32c0 -6.627 5.373 -12 12 -12zM12 100h424c6.627 0 12 5.373 12 12v32c0 6.627 -5.373 12 -12 12h-424c-6.627 0 -12 -5.373 -12 -12v-32c0 -6.627 5.373 -12 12 -12z
" />
    <glyph glyph-name="angle-double-down" unicode="&#xf103;" horiz-adv-x="320" 
d="M151.5 20.2l-148 146.8c-4.7 4.7 -4.7 12.3 0 17l19.8 19.8c4.7 4.7 12.3 4.7 17 0l119.7 -118.5l119.7 118.5c4.7 4.7 12.3 4.7 17 0l19.8 -19.8c4.7 -4.7 4.7 -12.3 0 -17l-148 -146.8c-4.7 -4.7 -12.3 -4.7 -17 0zM168.5 180.2l148 146.8c4.7 4.7 4.7 12.3 0 17
l-19.8 19.8c-4.7 4.7 -12.3 4.7 -17 0l-119.7 -118.5l-119.7 118.5c-4.7 4.7 -12.3 4.7 -17 0l-19.8 -19.8c-4.7 -4.7 -4.7 -12.3 0 -17l148 -146.8c4.7 -4.7 12.3 -4.7 17 0z" />
    <glyph glyph-name="angle-double-left" unicode="&#xf100;" horiz-adv-x="384" 
d="M20.2 200.5l146.8 148c4.7 4.7 12.3 4.7 17 0l19.8 -19.8c4.7 -4.7 4.7 -12.3 0 -17l-118.5 -119.7l118.5 -119.7c4.7 -4.7 4.7 -12.3 0 -17l-19.8 -19.8c-4.7 -4.7 -12.3 -4.7 -17 0l-146.8 148c-4.7 4.7 -4.7 12.3 0 17zM180.2 183.5l146.8 -148
c4.7 -4.7 12.3 -4.7 17 0l19.8 19.8c4.7 4.7 4.7 12.3 0 17l-118.5 119.7l118.5 119.7c4.7 4.7 4.7 12.3 0 17l-19.8 19.8c-4.7 4.7 -12.3 4.7 -17 0l-146.8 -148c-4.7 -4.7 -4.7 -12.3 0 -17z" />
    <glyph glyph-name="angle-double-right" unicode="&#xf101;" horiz-adv-x="384" 
d="M363.8 183.5l-146.8 -148c-4.7 -4.7 -12.3 -4.7 -17 0l-19.8 19.8c-4.7 4.7 -4.7 12.3 0 17l118.5 119.7l-118.5 119.7c-4.7 4.7 -4.7 12.3 0 17l19.8 19.8c4.7 4.7 12.3 4.7 17 0l146.8 -148c4.7 -4.7 4.7 -12.3 0 -17zM203.8 200.5l-146.8 148
c-4.7 4.7 -12.3 4.7 -17 0l-19.8 -19.8c-4.7 -4.7 -4.7 -12.3 0 -17l118.5 -119.7l-118.5 -119.7c-4.7 -4.7 -4.7 -12.3 0 -17l19.8 -19.8c4.7 -4.7 12.3 -4.7 17 0l146.8 148c4.7 4.7 4.7 12.3 0 17z" />
    <glyph glyph-name="angle-double-up" unicode="&#xf102;" horiz-adv-x="320" 
d="M168.5 363.8l148 -146.8c4.7 -4.7 4.7 -12.3 0 -17l-19.8 -19.8c-4.7 -4.7 -12.3 -4.7 -17 0l-119.7 118.5l-119.7 -118.5c-4.7 -4.7 -12.3 -4.7 -17 0l-19.8 19.8c-4.7 4.7 -4.7 12.3 0 17l148 146.8c4.7 4.7 12.3 4.7 17 0zM151.5 203.8l-148 -146.8
c-4.7 -4.7 -4.7 -12.3 0 -17l19.8 -19.8c4.7 -4.7 12.3 -4.7 17 0l119.7 118.5l119.7 -118.5c4.7 -4.7 12.3 -4.7 17 0l19.8 19.8c4.7 4.7 4.7 12.3 0 17l-148 146.8c-4.7 4.7 -12.3 4.7 -17 0z" />
    <glyph glyph-name="angle-down" unicode="&#xf107;" horiz-adv-x="320" 
d="M151.5 100.2l-148 146.8c-4.7 4.7 -4.7 12.3 0 17l19.8 19.8c4.7 4.7 12.3 4.7 17 0l119.7 -118.5l119.7 118.5c4.7 4.7 12.3 4.7 17 0l19.8 -19.8c4.7 -4.7 4.7 -12.3 0 -17l-148 -146.8c-4.7 -4.7 -12.3 -4.7 -17 0z" />
    <glyph glyph-name="angle-left" unicode="&#xf104;" horiz-adv-x="192" 
d="M4.2 200.5l146.8 148c4.7 4.7 12.3 4.7 17 0l19.8 -19.8c4.7 -4.7 4.7 -12.3 0 -17l-118.5 -119.7l118.5 -119.7c4.7 -4.7 4.7 -12.3 0 -17l-19.8 -19.8c-4.7 -4.7 -12.3 -4.7 -17 0l-146.8 148c-4.7 4.7 -4.7 12.3 0 17z" />
    <glyph glyph-name="angle-right" unicode="&#xf105;" horiz-adv-x="192" 
d="M187.8 183.5l-146.8 -148c-4.7 -4.7 -12.3 -4.7 -17 0l-19.8 19.8c-4.7 4.7 -4.7 12.3 0 17l118.5 119.7l-118.5 119.7c-4.7 4.7 -4.7 12.3 0 17l19.8 19.8c4.7 4.7 12.3 4.7 17 0l146.8 -148c4.7 -4.7 4.7 -12.3 0 -17z" />
    <glyph glyph-name="angle-up" unicode="&#xf106;" horiz-adv-x="320" 
d="M168.5 283.8l148 -146.8c4.7 -4.7 4.7 -12.3 0 -17l-19.8 -19.8c-4.7 -4.7 -12.3 -4.7 -17 0l-119.7 118.5l-119.7 -118.5c-4.7 -4.7 -12.3 -4.7 -17 0l-19.8 19.8c-4.7 4.7 -4.7 12.3 0 17l148 146.8c4.7 4.7 12.3 4.7 17 0z" />
    <glyph glyph-name="arrow-alt-down" unicode="&#xf354;" horiz-adv-x="448" 
d="M400 240h-73.8v128c0 26.5 -21.5 48 -48 48h-108.4c-26.5 0 -48 -21.5 -48 -48v-128h-73.7c-42.6 0 -64.2 -51.7 -33.9 -81.9l175.9 -176c18.7 -18.7 49.1 -18.7 67.9 0l176 176c30 30.1 8.7 81.9 -34 81.9zM224 16l-176 176h121.8v176h108.3v-176h121.9z" />
    <glyph glyph-name="arrow-alt-left" unicode="&#xf355;" horiz-adv-x="448" 
d="M272 16.048v73.798h128c26.51 0 48 21.49 48 48v108.308c0 26.51 -21.49 48 -48 48h-128v73.789c0 42.638 -51.731 64.15 -81.941 33.941l-176 -175.943c-18.745 -18.745 -18.746 -49.137 0 -67.882l176 -175.952c30.149 -30.149 81.941 -8.782 81.941 33.941zM48 192
l176 176v-121.846h176v-108.308h-176v-121.846z" />
    <glyph glyph-name="arrow-alt-right" unicode="&#xf356;" horiz-adv-x="448" 
d="M176 367.952v-73.798h-128c-26.51 0 -48 -21.49 -48 -48v-108.308c0 -26.51 21.49 -48 48 -48h128v-73.789c0 -42.638 51.731 -64.151 81.941 -33.941l176 175.943c18.745 18.745 18.746 49.137 0 67.882l-176 175.952c-30.149 30.149 -81.941 8.782 -81.941 -33.941z
M400 192l-176 -176v121.846h-176v108.308h176v121.846z" />
    <glyph glyph-name="arrow-alt-up" unicode="&#xf357;" horiz-adv-x="448" 
d="M48.048 144h73.798v-128c0 -26.51 21.49 -48 48 -48h108.308c26.51 0 48 21.49 48 48v128h73.789c42.638 0 64.151 51.731 33.941 81.941l-175.943 176c-18.745 18.745 -49.137 18.746 -67.882 0l-175.952 -176c-30.149 -30.149 -8.782 -81.941 33.941 -81.941zM224 368
l176 -176h-121.846v-176h-108.308v176h-121.846z" />
    <glyph glyph-name="bars" unicode="&#xf0c9;" horiz-adv-x="448" 
d="M436 324h-424c-6.627 0 -12 5.373 -12 12v32c0 6.627 5.373 12 12 12h424c6.627 0 12 -5.373 12 -12v-32c0 -6.627 -5.373 -12 -12 -12zM436 164h-424c-6.627 0 -12 5.373 -12 12v32c0 6.627 5.373 12 12 12h424c6.627 0 12 -5.373 12 -12v-32
c0 -6.627 -5.373 -12 -12 -12zM436 4h-424c-6.627 0 -12 5.373 -12 12v32c0 6.627 5.373 12 12 12h424c6.627 0 12 -5.373 12 -12v-32c0 -6.627 -5.373 -12 -12 -12z" />
    <glyph glyph-name="blanket" unicode="&#xf498;" 
d="M440 80h-328c-8.8 0 -16 -7.2 -16 -16v-16c0 -8.8 7.2 -16 16 -16h328c39.8 0 71.7 32.5 71.6 72.4l0.4 -0.4v256c0 48.5 -39.5 88 -88 88h-336c-48.5 0 -88 -39.5 -88 -88v-304l0.3 0.5c0 -8.4 0.5 -17 2.3 -25.7c11.5 -56.1 63.6 -94.8 120.8 -94.8h372.6
c8.8 0 16 7.2 16 16v16c0 8.8 -7.2 16 -16 16h-376c-42.2 0 -76 36.5 -71.6 79.5c3.8 37.5 38.2 64.5 75.9 64.5h315.7c13.2 0 24 -10.8 24 -24s-10.8 -24 -24 -24zM435.7 176h-315.7c-27 0 -51.9 -9.2 -72 -24.3v208.3c0 22.1 17.9 40 40 40h336c22.1 0 40 -17.9 40 -40
v-189.3c-8.9 3.4 -18.4 5.3 -28.3 5.3z" />
    <glyph glyph-name="bolt" unicode="&#xf0e7;" horiz-adv-x="320" 
d="M186.071 400l-38.666 -144h124.595l-152 -272l54.675 208h-126.675l19.72 208h118.351zM186.071 448h-118.351c-24.755 0 -45.449 -18.825 -47.786 -43.469l-19.716 -208c-2.671 -28.173 19.511 -52.531 47.786 -52.531h64.423l-38.85 -147.79
c-8.046 -30.608 15.211 -60.21 46.406 -60.21c16.943 0 33.209 9.005 41.919 24.592l151.945 271.993c17.857 31.954 -5.292 71.415 -41.902 71.415h-61.951l22.435 83.552c8.169 30.422 -14.751 60.448 -46.358 60.448z" />
    <glyph glyph-name="book-alt" unicode="&#xf5d9;" horiz-adv-x="448" 
d="M435.1 48.3c-4.2 -13 -4.2 -51.6 0 -64.6c7.3 -1.4 12.9 -7.9 12.9 -15.7v-16c0 -8.8 -7.2 -16 -16 -16h-352c-44.2 0 -80 35.8 -80 80v352c0 44.2 35.8 80 80 80h352c8.8 0 16 -7.2 16 -16v-368c0 -7.8 -5.5 -14.2 -12.9 -15.7zM394 48h-314c-17.6 0 -32 -14.4 -32 -32
c0 -17.7 14.3 -32 32 -32h314c-2.7 17.3 -2.7 46.7 0 64zM400 400h-320c-17.7 0 -32 -14.3 -32 -32v-278.7c9.8 4.3 20.6 6.7 32 6.7h320v304z" />
    <glyph glyph-name="bookmark" unicode="&#xf02e;" horiz-adv-x="384" 
d="M336 448h-288c-26.51 0 -48 -21.49 -48 -48v-464l192 112l192 -112v464c0 26.51 -21.49 48 -48 48zM336 19.57l-144 84l-144 -84v374.43c0 3.31149 2.68851 6 6 6h276c3.314 0 6 -2.683 6 -5.996v-374.434z" />
    <glyph glyph-name="browser" unicode="&#xf37e;" 
d="M464 416h-416c-26.5 0 -48 -21.5 -48 -48v-352c0 -26.5 21.5 -48 48 -48h416c26.5 0 48 21.5 48 48v352c0 26.5 -21.5 48 -48 48zM48 356c0 6.6 5.4 12 12 12h40c6.6 0 12 -5.4 12 -12v-24c0 -6.6 -5.4 -12 -12 -12h-40c-6.6 0 -12 5.4 -12 12v24zM464 22
c0 -3.3 -2.7 -6 -6 -6h-404c-3.3 0 -6 2.7 -6 6v258h416v-258zM464 332c0 -6.6 -5.4 -12 -12 -12h-280c-6.6 0 -12 5.4 -12 12v24c0 6.6 5.4 12 12 12h280c6.6 0 12 -5.4 12 -12v-24z" />
    <glyph glyph-name="bullhorn" unicode="&#xf0a1;" horiz-adv-x="576" 
d="M576 224c0 19.4 -13.7 35.5 -32 39.2v136.8c0 26.5 -21.5 48 -48 48c-65 -56 -158 -128 -288 -128h-160c-26.5 0 -48 -21.5 -48 -48v-96c0 -26.5 21.5 -48 48 -48h25.8c-8.1 -61.1 13.3 -111.5 27.5 -157.3c1.2 -3.7 3.2 -7.1 6 -9.8c36.7 -36.5 127.7 -34.8 153 18.3
c4.7 9.9 2.1 21.6 -6.2 28.6c-35.6 29.9 -38.1 30 -29.9 44.2c5.2 9.1 3.9 20.5 -3.2 28.2c-9.8 10.6 -4.6 38.2 11.1 46.9c117.5 -8.1 203 -74.6 263.9 -127.1c26.5 0 48 21.5 48 48v136.8c18.3 3.7 32 19.8 32 39.2zM48 176v96h160v-96h-160zM145 -8.1
c-14.5 45.2 -31.3 86.8 -22.6 136.1h51.6c-8.2 -21.5 -8.3 -46.1 1.9 -66.2c-11 -31.2 3.3 -53.4 26.5 -73.5c-17.9 -7.1 -43.8 -5 -57.4 3.6zM496 62.5c-71.8 57.6 -148.4 99.3 -240 110.5v102c91.6 11.3 168.1 52.9 240 110.5v-323z" />
    <glyph glyph-name="bullseye" unicode="&#xf140;" 
d="M256 392c110.532 0 200 -89.451 200 -200c0 -110.532 -89.451 -200 -200 -200c-110.532 0 -200 89.451 -200 200c0 110.532 89.451 200 200 200zM256 440c-136.967 0 -248 -111.033 -248 -248s111.033 -248 248 -248c136.967 0 248 111.033 248 248
c0 136.967 -111.033 248 -248 248zM256 296c57.346 0 104 -46.654 104 -104s-46.654 -104 -104 -104s-104 46.654 -104 104s46.654 104 104 104zM256 344c-83.947 0 -152 -68.053 -152 -152s68.053 -152 152 -152s152 68.053 152 152s-68.053 152 -152 152zM256 248
c-30.928 0 -56 -25.072 -56 -56s25.072 -56 56 -56s56 25.072 56 56s-25.072 56 -56 56z" />
    <glyph glyph-name="calculator" unicode="&#xf1ec;" horiz-adv-x="448" 
d="M400 448h-352c-26.5 0 -48 -21.5 -48 -48v-416c0 -26.5 21.5 -48 48 -48h352c26.5 0 48 21.5 48 48v416c0 26.5 -21.5 48 -48 48zM54 400h340c3.3 0 6 -2.7 6 -6v-114h-352v114c0 3.3 2.7 6 6 6zM394 -16h-340c-3.3 0 -6 2.7 -6 6v242h352v-242c0 -3.3 -2.7 -6 -6 -6z
M160 180v-40c0 -6.6 -5.4 -12 -12 -12h-40c-6.6 0 -12 5.4 -12 12v40c0 6.6 5.4 12 12 12h40c6.6 0 12 -5.4 12 -12zM256 180v-40c0 -6.6 -5.4 -12 -12 -12h-40c-6.6 0 -12 5.4 -12 12v40c0 6.6 5.4 12 12 12h40c6.6 0 12 -5.4 12 -12zM352 180v-136
c0 -6.6 -5.4 -12 -12 -12h-40c-6.6 0 -12 5.4 -12 12v136c0 6.6 5.4 12 12 12h40c6.6 0 12 -5.4 12 -12zM160 84v-40c0 -6.6 -5.4 -12 -12 -12h-40c-6.6 0 -12 5.4 -12 12v40c0 6.6 5.4 12 12 12h40c6.6 0 12 -5.4 12 -12zM256 84v-40c0 -6.6 -5.4 -12 -12 -12h-40
c-6.6 0 -12 5.4 -12 12v40c0 6.6 5.4 12 12 12h40c6.6 0 12 -5.4 12 -12z" />
    <glyph glyph-name="calendar-alt" unicode="&#xf073;" horiz-adv-x="448" 
d="M148 160h-40c-6.6 0 -12 5.4 -12 12v40c0 6.6 5.4 12 12 12h40c6.6 0 12 -5.4 12 -12v-40c0 -6.6 -5.4 -12 -12 -12zM256 172v40c0 6.6 -5.4 12 -12 12h-40c-6.6 0 -12 -5.4 -12 -12v-40c0 -6.6 5.4 -12 12 -12h40c6.6 0 12 5.4 12 12zM352 172v40c0 6.6 -5.4 12 -12 12
h-40c-6.6 0 -12 -5.4 -12 -12v-40c0 -6.6 5.4 -12 12 -12h40c6.6 0 12 5.4 12 12zM256 76v40c0 6.6 -5.4 12 -12 12h-40c-6.6 0 -12 -5.4 -12 -12v-40c0 -6.6 5.4 -12 12 -12h40c6.6 0 12 5.4 12 12zM160 76v40c0 6.6 -5.4 12 -12 12h-40c-6.6 0 -12 -5.4 -12 -12v-40
c0 -6.6 5.4 -12 12 -12h40c6.6 0 12 5.4 12 12zM352 76v40c0 6.6 -5.4 12 -12 12h-40c-6.6 0 -12 -5.4 -12 -12v-40c0 -6.6 5.4 -12 12 -12h40c6.6 0 12 5.4 12 12zM448 336v-352c0 -26.5 -21.5 -48 -48 -48h-352c-26.5 0 -48 21.5 -48 48v352c0 26.5 21.5 48 48 48h48v52
c0 6.6 5.4 12 12 12h40c6.6 0 12 -5.4 12 -12v-52h128v52c0 6.6 5.4 12 12 12h40c6.6 0 12 -5.4 12 -12v-52h48c26.5 0 48 -21.5 48 -48zM400 -10v298h-352v-298c0 -3.3 2.7 -6 6 -6h340c3.3 0 6 2.7 6 6z" />
    <glyph glyph-name="calendar-check" unicode="&#xf274;" horiz-adv-x="448" 
d="M400 384h-48v52c0 6.627 -5.373 12 -12 12h-40c-6.627 0 -12 -5.373 -12 -12v-52h-128v52c0 6.627 -5.373 12 -12 12h-40c-6.627 0 -12 -5.373 -12 -12v-52h-48c-26.51 0 -48 -21.49 -48 -48v-352c0 -26.51 21.49 -48 48 -48h352c26.51 0 48 21.49 48 48v352
c0 26.51 -21.49 48 -48 48zM394 -16h-340c-3.31149 0 -6 2.68851 -6 6v298h352v-298c0 -3.31149 -2.68851 -6 -6 -6zM341.151 184.65l-142.309 -141.169c-4.705 -4.667 -12.303 -4.637 -16.971 0.068l-75.091 75.699c-4.667 4.705 -4.637 12.303 0.068 16.971l22.719 22.536
c4.705 4.667 12.303 4.637 16.97 -0.069l44.104 -44.461l111.072 110.181c4.705 4.667 12.303 4.637 16.971 -0.068l22.536 -22.718c4.667 -4.705 4.636 -12.303 -0.069 -16.97z" />
    <glyph glyph-name="calendar-edit" unicode="&#xf333;" horiz-adv-x="448" 
d="M243.1 213.9l46.8 -46.8c2 -2 2 -5.2 0 -7.2l-114.5 -114.5l-48.2 -5.4c-6.4 -0.7 -11.9 4.7 -11.2 11.2l5.4 48.2l114.5 114.5c2 2 5.2 2 7.2 0zM326.1 224.7l-25.4 25.4c-7.9 7.9 -20.7 7.9 -28.6 0l-19.5 -19.5c-2 -2 -2 -5.2 0 -7.2l46.8 -46.8c2 -2 5.2 -2 7.2 0
l19.5 19.5c7.9 7.9 7.9 20.7 0 28.6zM448 336v-352c0 -26.5 -21.5 -48 -48 -48h-352c-26.5 0 -48 21.5 -48 48v352c0 26.5 21.5 48 48 48h48v52c0 6.6 5.4 12 12 12h40c6.6 0 12 -5.4 12 -12v-52h128v52c0 6.6 5.4 12 12 12h40c6.6 0 12 -5.4 12 -12v-52h48
c26.5 0 48 -21.5 48 -48zM400 -10v298h-352v-298c0 -3.3 2.7 -6 6 -6h340c3.3 0 6 2.7 6 6z" />
    <glyph glyph-name="calendar" unicode="&#xf133;" horiz-adv-x="448" 
d="M400 384h-48v52c0 6.6 -5.4 12 -12 12h-40c-6.6 0 -12 -5.4 -12 -12v-52h-128v52c0 6.6 -5.4 12 -12 12h-40c-6.6 0 -12 -5.4 -12 -12v-52h-48c-26.5 0 -48 -21.5 -48 -48v-352c0 -26.5 21.5 -48 48 -48h352c26.5 0 48 21.5 48 48v352c0 26.5 -21.5 48 -48 48zM394 -16
h-340c-3.3 0 -6 2.7 -6 6v298h352v-298c0 -3.3 -2.7 -6 -6 -6z" />
    <glyph glyph-name="camera-alt" unicode="&#xf332;" 
d="M256 40c-66.2 0 -120 53.8 -120 120c0 66.2 53.8 120 120 120s120 -53.8 120 -120s-53.8 -120 -120 -120zM256 232c-39.7 0 -72 -32.3 -72 -72s32.3 -72 72 -72s72 32.3 72 72c0 39.7 -32.3 72 -72 72zM232 160c0 13.2 10.8 24 24 24c8.8 0 16 7.2 16 16s-7.2 16 -16 16
c-30.9 0 -56 -25.1 -56 -56c0 -8.8 7.2 -16 16 -16s16 7.2 16 16zM342.7 305h121.3v-288h-416v288h121.3l24 64h125.5zM324.3 417h-131c-20 0 -37.9 -12.4 -44.9 -31.1l-12.4 -32.9h-88c-26.5 0 -48 -21.5 -48 -48v-288c0 -26.5 21.5 -48 48 -48h416c26.5 0 48 21.5 48 48
v288c0 26.5 -21.5 48 -48 48h-88l-14.3 38c-5.8 15.7 -20.7 26 -37.4 26z" />
    <glyph glyph-name="camera-retro" unicode="&#xf083;" 
d="M154 368h-116c-3.3 0 -6 2.7 -6 6v36c0 3.3 2.7 6 6 6h116c3.3 0 6 -2.7 6 -6v-36c0 -3.3 -2.7 -6 -6 -6zM512 368v-352c0 -26.5 -21.5 -48 -48 -48h-416c-26.5 0 -48 21.5 -48 48v288c0 26.5 21.5 48 48 48h136l33.6 44.8c9.1 12.1 23.3 19.2 38.4 19.2h208
c26.5 0 48 -21.5 48 -48zM464 304h-416v-288h416v288zM464 368h-208l-12 -16h220v16zM376 160c0 66.2 -53.8 120 -120 120s-120 -53.8 -120 -120s53.8 -120 120 -120s120 53.8 120 120zM328 160c0 -39.7 -32.3 -72 -72 -72s-72 32.3 -72 72c0 39.7 32.3 72 72 72
s72 -32.3 72 -72zM232 160c0 13.2 10.8 24 24 24c8.8 0 16 7.2 16 16s-7.2 16 -16 16c-30.9 0 -56 -25.1 -56 -56c0 -8.8 7.2 -16 16 -16s16 7.2 16 16z" />
    <glyph glyph-name="camera" unicode="&#xf030;" 
d="M342.7 304h121.3v-288h-416v288h121.3l24 64h125.5zM324.3 416h-131c-20 0 -37.9 -12.4 -44.9 -31.1l-12.4 -32.9h-88c-26.5 0 -48 -21.5 -48 -48v-288c0 -26.5 21.5 -48 48 -48h416c26.5 0 48 21.5 48 48v288c0 26.5 -21.5 48 -48 48h-88l-14.3 38
c-5.8 15.7 -20.7 26 -37.4 26zM256 40c-66.2 0 -120 53.8 -120 120c0 66.2 53.8 120 120 120s120 -53.8 120 -120s-53.8 -120 -120 -120zM256 232c-39.7 0 -72 -32.3 -72 -72s32.3 -72 72 -72s72 32.3 72 72c0 39.7 -32.3 72 -72 72z" />
    <glyph glyph-name="chart-area" unicode="&#xf1fe;" 
d="M500 48c6.6 0 12 -5.4 12 -12v-24c0 -6.6 -5.4 -12 -12 -12h-488c-6.6 0 -12 5.4 -12 12v360c0 6.6 5.4 12 12 12h24c6.6 0 12 -5.4 12 -12v-324h452zM372 319.3l-84 -56l-85.1 85.1c-5.5 5.5 -14.8 4.4 -18.8 -2.3l-88.1 -154.1v-96h384l-90.3 218.1
c-3 6.9 -11.5 9.4 -17.7 5.2zM144 178.7l57.5 103.2l80.4 -80.4c71.8 47.9 8.2 5.4 80.7 53.8l44.6 -111.3h-263.2v34.7z" />
    <glyph glyph-name="chart-bar" unicode="&#xf080;" 
d="M500 48c6.6 0 12 -5.4 12 -12v-24c0 -6.6 -5.4 -12 -12 -12h-488c-6.6 0 -12 5.4 -12 12v360c0 6.6 5.4 12 12 12h24c6.6 0 12 -5.4 12 -12v-324h452zM144 108v72c0 6.6 -5.4 12 -12 12h-24c-6.6 0 -12 -5.4 -12 -12v-72c0 -6.6 5.4 -12 12 -12h24c6.6 0 12 5.4 12 12z
M240 108v200c0 6.6 -5.4 12 -12 12h-24c-6.6 0 -12 -5.4 -12 -12v-200c0 -6.6 5.4 -12 12 -12h24c6.6 0 12 5.4 12 12zM336 108v136c0 6.6 -5.4 12 -12 12h-24c-6.6 0 -12 -5.4 -12 -12v-136c0 -6.6 5.4 -12 12 -12h24c6.6 0 12 5.4 12 12zM432 108v232
c0 6.6 -5.4 12 -12 12h-24c-6.6 0 -12 -5.4 -12 -12v-232c0 -6.6 5.4 -12 12 -12h24c6.6 0 12 5.4 12 12z" />
    <glyph glyph-name="chart-line" unicode="&#xf201;" 
d="M500 48c6.6 0 12 -5.4 12 -12v-24c0 -6.6 -5.4 -12 -12 -12h-488c-6.6 0 -12 5.4 -12 12v360c0 6.6 5.4 12 12 12h24c6.6 0 12 -5.4 12 -12v-324h452zM468 352h-136c-10.7 0 -16 -12.9 -8.5 -20.5l52 -52l-87.5 -87.5l-64 64l-145 -142.1l34 -33.9l111 110.1l64 -62.1
l120.8 118.2l50.7 -50.7c7.6 -7.6 20.5 -2.2 20.5 8.5v136c0 6.6 -5.4 12 -12 12z" />
    <glyph glyph-name="chart-pie" unicode="&#xf200;" horiz-adv-x="544" 
d="M280 400c101.6 0 184 -82.4 184 -184h-184v184zM232 352v-184l130.1 -130.1c-33.3 -33.3 -79.3 -53.9 -130.1 -53.9c-101.6 0 -184 82.4 -184 184c0 101.6 82.4 184 184 184zM496 168c0 -49.9 -19 -99.8 -57.1 -137.9l-137.9 137.9h195zM232 436v-36
c-128.1 0 -232 -103.8 -232 -232c0 -128.1 103.8 -232 232 -232c62.1 0 120.7 24.6 164.1 67.9l0.6 0.6l8.3 -8.3l25.5 -25.5c4.7 -4.7 12.3 -4.7 17 0l25.5 25.5c46 46 71.2 107.6 71.2 171.8v36c0 6.6 -5.4 12 -12 12h-20c0 31.3 -6.1 61.7 -18.3 90.3
c-22.9 53.9 -66.4 99.3 -123.6 123.4c-28.6 12.2 -59 18.3 -90.3 18.3h-36c-6.6 0 -12 -5.4 -12 -12z" />
    <glyph glyph-name="check-circle" unicode="&#xf058;" 
d="M256 440c-136.967 0 -248 -111.033 -248 -248s111.033 -248 248 -248c136.967 0 248 111.033 248 248c0 136.967 -111.033 248 -248 248zM256 392c110.532 0 200 -89.451 200 -200c0 -110.532 -89.451 -200 -200 -200c-110.532 0 -200 89.451 -200 200
c0 110.532 89.451 200 200 200zM396.204 261.733l-22.536 22.718c-4.667 4.705 -12.265 4.736 -16.97 0.068l-141.352 -140.216l-59.792 60.277c-4.667 4.705 -12.265 4.736 -16.97 0.069l-22.719 -22.536c-4.705 -4.667 -4.736 -12.265 -0.068 -16.971l90.781 -91.516
c4.667 -4.705 12.265 -4.736 16.97 -0.068l172.589 171.204c4.704 4.668 4.734 12.266 0.067 16.971z" />
    <glyph glyph-name="check-double" unicode="&#xf560;" horiz-adv-x="448" 
d="M444.09 281.01l-27.39 28.37c-2.6 1.96 -5.53 2.93 -8.8 2.93c-3.27 0 -5.87 -0.98 -7.82 -2.93l-257.27 -258.24l-94.88 94.88c-1.96 2.61 -4.55 3.91 -7.82 3.91c-3.27 0 -6.21 -1.3 -8.8 -3.91l-27.4 -27.38c-2.6 -2.61 -3.91 -5.55 -3.91 -8.8s1.31 -5.87 3.91 -7.82
l130.1 -131.07c2.6 -1.96 5.53 -2.94 8.8 -2.94s5.87 0.98 7.82 2.94l293.45 293.45c2.6 2.61 3.91 5.55 3.91 8.8c0.01 3.24 -1.3 5.86 -3.9 7.81zM131.88 162.96c2.62 -1.97 5.58 -2.96 8.88 -2.96s5.92 0.99 7.89 2.96l204.69 204.69c2.62 2.64 3.95 5.6 3.95 8.88
c0 3.28 -1.33 5.92 -3.95 7.89l-27.63 28.62c-2.62 1.97 -5.58 2.96 -8.88 2.96s-5.92 -0.99 -7.89 -2.96l-168.18 -169.16l-60.41 60.41c-1.97 2.64 -4.59 3.95 -7.89 3.95s-6.26 -1.31 -8.88 -3.95l-27.63 -27.63c-2.62 -2.64 -3.95 -5.6 -3.95 -8.88
c0 -3.29 1.33 -5.92 3.95 -7.89z" />
    <glyph glyph-name="check-square" unicode="&#xf14a;" horiz-adv-x="448" 
d="M400 416h-352c-26.51 0 -48 -21.49 -48 -48v-352c0 -26.51 21.49 -48 48 -48h352c26.51 0 48 21.49 48 48v352c0 26.51 -21.49 48 -48 48zM400 16h-352v352h352v-352zM364.136 257.724l-172.589 -171.204c-4.705 -4.667 -12.303 -4.637 -16.97 0.068l-90.781 91.516
c-4.667 4.705 -4.637 12.303 0.069 16.971l22.719 22.536c4.705 4.667 12.303 4.637 16.97 -0.069l59.792 -60.277l141.352 140.216c4.705 4.667 12.303 4.637 16.97 -0.068l22.536 -22.718c4.667 -4.706 4.637 -12.304 -0.068 -16.971z" />
    <glyph glyph-name="check" unicode="&#xf00c;" 
d="M435.848 364.534l-263.044 -263.044l-96.652 96.652c-4.686 4.686 -12.284 4.686 -16.971 0l-28.284 -28.284c-4.686 -4.686 -4.686 -12.284 0 -16.971l133.421 -133.421c4.686 -4.686 12.284 -4.686 16.971 0l299.813 299.813c4.686 4.686 4.686 12.284 0 16.971
l-28.284 28.284c-4.686 4.686 -12.284 4.686 -16.97 0z" />
    <glyph glyph-name="chevron-double-down" unicode="&#xf322;" horiz-adv-x="448" 
d="M441.9 358.3l-209.4 -209.4c-4.7 -4.7 -12.3 -4.7 -17 0l-209.4 209.4c-4.7 4.7 -4.7 12.3 0 17l19.8 19.8c4.7 4.7 12.3 4.7 17 0l181.1 -180.7l181.1 180.7c4.7 4.7 12.3 4.7 17 0l19.8 -19.8c4.7 -4.7 4.7 -12.3 -1.13687e-13 -17zM441.9 215.3l-19.8 19.8
c-4.7 4.7 -12.3 4.7 -17 0l-181.1 -180.7l-181.1 180.7c-4.7 4.7 -12.3 4.7 -17 0l-19.8 -19.8c-4.7 -4.7 -4.7 -12.3 0 -17l209.4 -209.4c4.7 -4.7 12.3 -4.7 17 0l209.4 209.4c4.7 4.7 4.7 12.3 0 17z" />
    <glyph glyph-name="chevron-double-left" unicode="&#xf323;" horiz-adv-x="448" 
d="M390.3 -25.9l-209.4 209.4c-4.7 4.7 -4.7 12.3 0 17l209.4 209.4c4.7 4.7 12.3 4.7 17 0l19.8 -19.8c4.7 -4.7 4.7 -12.3 0 -17l-180.7 -181.1l180.7 -181.1c4.7 -4.7 4.7 -12.3 0 -17l-19.8 -19.8c-4.7 -4.7 -12.3 -4.7 -17 0zM247.3 -25.9l19.8 19.8
c4.7 4.7 4.7 12.3 0 17l-180.7 181.1l180.7 181.1c4.7 4.7 4.7 12.3 0 17l-19.8 19.8c-4.7 4.7 -12.3 4.7 -17 0l-209.4 -209.4c-4.7 -4.7 -4.7 -12.3 0 -17l209.4 -209.4c4.7 -4.7 12.3 -4.7 17 0z" />
    <glyph glyph-name="chevron-double-right" unicode="&#xf324;" horiz-adv-x="448" 
d="M57.7 409.9l209.4 -209.4c4.7 -4.7 4.7 -12.3 0 -17l-209.4 -209.4c-4.7 -4.7 -12.3 -4.7 -17 0l-19.8 19.8c-4.7 4.7 -4.7 12.3 0 17l180.7 181.1l-180.7 181.1c-4.7 4.7 -4.7 12.3 0 17l19.8 19.8c4.7 4.7 12.3 4.7 17 0zM200.7 409.9l-19.8 -19.8
c-4.7 -4.7 -4.7 -12.3 0 -17l180.7 -181.1l-180.7 -181.1c-4.7 -4.7 -4.7 -12.3 0 -17l19.8 -19.8c4.7 -4.7 12.3 -4.7 17 0l209.4 209.4c4.7 4.7 4.7 12.3 0 17l-209.4 209.4c-4.7 4.7 -12.3 4.7 -17 0z" />
    <glyph glyph-name="chevron-double-up" unicode="&#xf325;" horiz-adv-x="448" 
d="M6.1 25.7l209.4 209.4c4.7 4.7 12.3 4.7 17 0l209.4 -209.4c4.7 -4.7 4.7 -12.3 0 -17l-19.8 -19.8c-4.7 -4.7 -12.3 -4.7 -17 0l-181.1 180.7l-181.1 -180.7c-4.7 -4.7 -12.3 -4.7 -17 0l-19.8 19.8c-4.7 4.7 -4.7 12.3 0 17zM6.1 168.7l19.8 -19.8
c4.7 -4.7 12.3 -4.7 17 0l181.1 180.7l181.1 -180.7c4.7 -4.7 12.3 -4.7 17 0l19.8 19.8c4.7 4.7 4.7 12.3 0 17l-209.4 209.4c-4.7 4.7 -12.3 4.7 -17 0l-209.4 -209.4c-4.7 -4.7 -4.7 -12.3 0 -17z" />
    <glyph glyph-name="chevron-down" unicode="&#xf078;" horiz-adv-x="448" 
d="M441.9 280.7l-19.8 19.8c-4.7 4.7 -12.3 4.7 -17 0l-181.1 -180.7l-181.1 180.7c-4.7 4.7 -12.3 4.7 -17 0l-19.8 -19.8c-4.7 -4.7 -4.7 -12.3 0 -17l209.4 -209.4c4.7 -4.7 12.3 -4.7 17 0l209.4 209.4c4.7 4.7 4.7 12.3 0 17z" />
    <glyph glyph-name="chevron-left" unicode="&#xf053;" horiz-adv-x="256" 
d="M231.293 -25.899l19.799 19.799c4.686 4.686 4.686 12.284 0 16.971l-180.699 181.129l180.699 181.13c4.686 4.686 4.686 12.284 0 16.971l-19.799 19.799c-4.686 4.686 -12.284 4.686 -16.971 0l-209.414 -209.415c-4.686 -4.686 -4.686 -12.284 0 -16.971
l209.414 -209.414c4.687 -4.686 12.285 -4.686 16.971 0.001z" />
    <glyph glyph-name="chevron-right" unicode="&#xf054;" horiz-adv-x="256" 
d="M24.707 409.899l-19.799 -19.798c-4.686 -4.686 -4.686 -12.284 0 -16.971l180.699 -181.13l-180.699 -181.13c-4.686 -4.686 -4.686 -12.284 0 -16.971l19.799 -19.799c4.686 -4.686 12.284 -4.686 16.971 0l209.414 209.414c4.686 4.686 4.686 12.284 0 16.971
l-209.414 209.414c-4.687 4.687 -12.285 4.687 -16.971 0z" />
    <glyph glyph-name="chevron-up" unicode="&#xf077;" horiz-adv-x="448" 
d="M6.101 88.707l19.799 -19.799c4.686 -4.686 12.284 -4.686 16.971 0l181.129 180.699l181.13 -180.698c4.686 -4.686 12.284 -4.686 16.971 0l19.799 19.799c4.686 4.686 4.686 12.284 0 16.971l-209.415 209.413c-4.686 4.686 -12.284 4.686 -16.971 0
l-209.413 -209.414c-4.687 -4.687 -4.687 -12.285 0 -16.971z" />
    <glyph glyph-name="circle" unicode="&#xf111;" 
d="M256 440c-137 0 -248 -111 -248 -248s111 -248 248 -248s248 111 248 248s-111 248 -248 248zM256 -8c-110.5 0 -200 89.5 -200 200s89.5 200 200 200s200 -89.5 200 -200s-89.5 -200 -200 -200z" />
    <glyph glyph-name="clipboard-check" unicode="&#xf46c;" horiz-adv-x="384" 
d="M269.3 222.2c-3.9 3.9 -10.2 3.9 -14.1 0.1l-88 -87.3l-38.1 38.5c-3.9 3.9 -10.2 3.9 -14.1 0.1l-23.6 -23.4c-3.9 -3.9 -3.9 -10.2 -0.1 -14.1l68.5 -69.1c3.9 -3.9 10.2 -3.9 14.1 -0.1l118.6 117.6c3.9 3.9 3.9 10.2 0.1 14.1zM336 384h-80c0 35.3 -28.7 64 -64 64
s-64 -28.7 -64 -64h-80c-26.5 0 -48 -21.5 -48 -48v-352c0 -26.5 21.5 -48 48 -48h288c26.5 0 48 21.5 48 48v352c0 26.5 -21.5 48 -48 48zM192 400c8.8 0 16 -7.2 16 -16s-7.2 -16 -16 -16s-16 7.2 -16 16s7.2 16 16 16zM336 -8c0 -4.4 -3.6 -8 -8 -8h-272
c-4.4 0 -8 3.6 -8 8v336c0 4.4 3.6 8 8 8h40v-32c0 -8.8 7.2 -16 16 -16h160c8.8 0 16 7.2 16 16v32h40c4.4 0 8 -3.6 8 -8v-336z" />
    <glyph glyph-name="clipboard" unicode="&#xf328;" horiz-adv-x="384" 
d="M336 384h-80c0 35.29 -28.71 64 -64 64s-64 -28.71 -64 -64h-80c-26.51 0 -48 -21.49 -48 -48v-352c0 -26.51 21.49 -48 48 -48h288c26.51 0 48 21.49 48 48v352c0 26.51 -21.49 48 -48 48zM330 -16h-276c-3.31149 0 -6 2.68851 -6 6v340c0 3.31149 2.68851 6 6 6h42v-36
c0 -6.627 5.373 -12 12 -12h168c6.627 0 12 5.373 12 12v36h42c3.31149 0 6 -2.68851 6 -6v-340c0 -3.31149 -2.68851 -6 -6 -6zM192 408c13.255 0 24 -10.745 24 -24s-10.745 -24 -24 -24s-24 10.745 -24 24s10.745 24 24 24z" />
    <glyph glyph-name="clock" unicode="&#xf017;" 
d="M256 440c-137 0 -248 -111 -248 -248s111 -248 248 -248s248 111 248 248s-111 248 -248 248zM256 -8c-110.5 0 -200 89.5 -200 200s89.5 200 200 200s200 -89.5 200 -200s-89.5 -200 -200 -200zM317.8 96.4l-84.9 61.7c-3.1 2.3 -4.9 5.9 -4.9 9.7v164.2
c0 6.6 5.4 12 12 12h32c6.6 0 12 -5.4 12 -12v-141.7l66.8 -48.6c5.4 -3.9 6.5 -11.4 2.6 -16.8l-18.8 -25.9c-3.9 -5.3 -11.4 -6.5 -16.8 -2.6z" />
    <glyph glyph-name="clone" unicode="&#xf24d;" 
d="M464 448h-320c-26.51 0 -48 -21.49 -48 -48v-48h-48c-26.51 0 -48 -21.49 -48 -48v-320c0 -26.51 21.49 -48 48 -48h320c26.51 0 48 21.49 48 48v48h48c26.51 0 48 21.49 48 48v320c0 26.51 -21.49 48 -48 48zM362 -16h-308c-3.31149 0 -6 2.68851 -6 6v308
c0 3.31149 2.68851 6 6 6h42v-224c0 -26.51 21.49 -48 48 -48h224v-42c0 -3.31149 -2.68851 -6 -6 -6zM458 80h-308c-3.31149 0 -6 2.68851 -6 6v308c0 3.31149 2.68851 6 6 6h308c3.31149 0 6 -2.68851 6 -6v-308c0 -3.31149 -2.68851 -6 -6 -6z" />
    <glyph glyph-name="closed-captioning" unicode="&#xf20a;" 
d="M464 384h-416c-26.5 0 -48 -21.5 -48 -48v-288c0 -26.5 21.5 -48 48 -48h416c26.5 0 48 21.5 48 48v288c0 26.5 -21.5 48 -48 48zM458 48h-404c-3.3 0 -6 2.7 -6 6v276c0 3.3 2.7 6 6 6h404c3.3 0 6 -2.7 6 -6v-276c0 -3.3 -2.7 -6 -6 -6zM246.9 133.7
c1.7 -2.4 1.5 -5.6 -0.5 -7.7c-53.6 -56.8 -172.8 -32.1 -172.8 67.9c0 97.3 121.7 119.5 172.5 70.1c2.1 -2 2.5 -3.2 1 -5.7l-17.5 -30.5c-1.9 -3.1 -6.2 -4 -9.1 -1.7c-40.8 32 -94.6 14.9 -94.6 -31.2c0 -48 51 -70.5 92.2 -32.6c2.8 2.5 7.1 2.1 9.2 -0.9zM437.3 133.7
c1.7 -2.4 1.5 -5.6 -0.5 -7.7c-53.6 -56.9 -172.8 -32.1 -172.8 67.9c0 97.3 121.7 119.5 172.5 70.1c2.1 -2 2.5 -3.2 1 -5.7l-17.5 -30.5c-1.9 -3.1 -6.2 -4 -9.1 -1.7c-40.8 32 -94.6 14.9 -94.6 -31.2c0 -48 51 -70.5 92.2 -32.6c2.8 2.5 7.1 2.1 9.2 -0.9z" />
    <glyph glyph-name="cloud-download-alt" unicode="&#xf381;" horiz-adv-x="640" 
d="M543.7 247.9c-4 58 -52.3 104.1 -111.7 104.1c-7.6 0 -15.1 -0.8 -22.4 -2.3c-31.9 40 -81.5 66.3 -137.6 66.3c-84.6 0 -155.5 -59.7 -172.3 -139.8c-59.8 -24.3 -99.7 -82.6 -99.7 -148.2c0 -88.4 71.6 -160 160 -160h336c79.5 0 144 64.5 144 144
c0 61.8 -39.2 115.8 -96.3 135.9zM496 16h-336c-61.9 0 -112 50.1 -112 112c0 56.4 41.7 103.1 96 110.9v1.1c0 70.7 57.3 128 128 128c53.5 0 99.3 -32.8 118.4 -79.4c11.2 9.6 25.7 15.4 41.6 15.4c35.3 0 64 -28.7 64 -64c0 -11.8 -3.2 -22.9 -8.8 -32.4
c2.9 0.3 5.9 0.4 8.8 0.4c53 0 96 -43 96 -96s-43 -96 -96 -96zM387 192h-67v84c0 6.6 -5.4 12 -12 12h-40c-6.6 0 -12 -5.4 -12 -12v-84h-67c-10.7 0 -16 -12.9 -8.5 -20.5l99 -99c4.7 -4.7 12.3 -4.7 17 0l99 99c7.6 7.6 2.2 20.5 -8.5 20.5z" />
    <glyph glyph-name="cloud-upload-alt" unicode="&#xf382;" horiz-adv-x="640" 
d="M395.5 180.5l-99 99c-4.7 4.7 -12.3 4.7 -17 0l-99 -99c-7.6 -7.6 -2.2 -20.5 8.5 -20.5h67v-84c0 -6.6 5.4 -12 12 -12h40c6.6 0 12 5.4 12 12v84h67c10.7 0 16.1 12.9 8.5 20.5zM543.7 247.9c-4 58 -52.3 104.1 -111.7 104.1c-7.6 0 -15.1 -0.8 -22.4 -2.3
c-31.9 40 -81.5 66.3 -137.6 66.3c-84.6 0 -155.5 -59.7 -172.3 -139.8c-59.8 -24.3 -99.7 -82.6 -99.7 -148.2c0 -88.4 71.6 -160 160 -160h336c79.5 0 144 64.5 144 144c0 61.8 -39.2 115.8 -96.3 135.9zM496 16h-336c-61.9 0 -112 50.1 -112 112
c0 56.4 41.7 103.1 96 110.9v1.1c0 70.7 57.3 128 128 128c53.5 0 99.3 -32.8 118.4 -79.4c11.2 9.6 25.7 15.4 41.6 15.4c35.3 0 64 -28.7 64 -64c0 -11.8 -3.2 -22.9 -8.8 -32.4c2.9 0.3 5.9 0.4 8.8 0.4c53 0 96 -43 96 -96s-43 -96 -96 -96z" />
    <glyph glyph-name="cloud" unicode="&#xf0c2;" horiz-adv-x="640" 
d="M543.7 247.9c-4 58 -52.3 104.1 -111.7 104.1c-7.6 0 -15.1 -0.8 -22.4 -2.3c-31.9 40 -81.5 66.3 -137.6 66.3c-84.6 0 -155.5 -59.7 -172.3 -139.8c-59.8 -24.3 -99.7 -82.6 -99.7 -148.2c0 -88.4 71.6 -160 160 -160h336c79.5 0 144 64.5 144 144
c0 61.8 -39.2 115.8 -96.3 135.9zM496 16h-336c-61.9 0 -112 50.1 -112 112c0 56.4 41.7 103.1 96 110.9v1.1c0 70.7 57.3 128 128 128c53.5 0 99.3 -32.8 118.4 -79.4c11.2 9.6 25.7 15.4 41.6 15.4c35.3 0 64 -28.7 64 -64c0 -11.8 -3.2 -22.9 -8.8 -32.4
c2.9 0.3 5.9 0.4 8.8 0.4c53 0 96 -43 96 -96s-43 -96 -96 -96z" />
    <glyph glyph-name="code" unicode="&#xf121;" horiz-adv-x="576" 
d="M234.8 -63.7l-38.8 11.3c-4.2 1.2 -6.7 5.7 -5.5 9.9l140.8 484.7c1.2 4.2 5.7 6.7 9.9 5.5l38.8 -11.3c4.2 -1.2 6.7 -5.7 5.5 -9.9l-140.8 -484.7c-1.2 -4.3 -5.6 -6.7 -9.9 -5.5zM151.6 57.4l27.2 29c3.1 3.3 2.8 8.5 -0.5 11.5l-106.1 94.1l106.1 94.1
c3.4 3 3.6 8.2 0.5 11.5l-27.2 29c-3 3.2 -8.1 3.4 -11.3 0.4l-137.8 -129.2c-3.4 -3.2 -3.4 -8.5 0 -11.7l137.8 -129.1c3.2 -3 8.2 -2.8 11.3 0.4zM435.7 57l137.7 129.1c3.4 3.2 3.4 8.5 0 11.7l-137.7 129.2c-3.2 3 -8.3 2.9 -11.3 -0.4l-27.2 -29
c-3.1 -3.3 -2.8 -8.5 0.5 -11.5l106.1 -94.1l-106.1 -94.1c-3.4 -3 -3.6 -8.2 -0.5 -11.5l27.2 -29c3.1 -3.2 8.1 -3.4 11.3 -0.4z" />
    <glyph glyph-name="cog" unicode="&#xf013;" 
d="M452.515 211l31.843 18.382c9.426 5.441 13.996 16.542 11.177 27.054c-11.404 42.531 -33.842 80.547 -64.058 110.797c-7.68 7.688 -19.575 9.246 -28.985 3.811l-31.785 -18.358c-10.2683 7.34839 -21.2901 13.7348 -32.899 19.02v36.753
c-0.00131187 11.1166 -7.57971 20.476 -17.842 23.206c-41.761 11.107 -86.117 11.121 -127.93 0.001c-10.519 -2.798 -17.844 -12.321 -17.844 -23.206v-36.753c-11.6089 -5.28517 -22.6307 -11.6716 -32.899 -19.02l-31.785 18.358
c-9.41 5.435 -21.305 3.877 -28.985 -3.811c-30.216 -30.25 -52.654 -68.265 -64.058 -110.797c-2.819 -10.512 1.751 -21.613 11.177 -27.054l31.843 -18.383c-0.609921 -6.31766 -0.921996 -12.7219 -0.921996 -19.1984c0 -6.47652 0.312075 -12.483 0.921996 -18.8006
l-31.843 -18.382c-9.426 -5.441 -13.996 -16.542 -11.177 -27.054c11.404 -42.531 33.842 -80.547 64.058 -110.797c7.68 -7.688 19.575 -9.246 28.985 -3.811l31.785 18.358c10.2681 -7.34841 21.2899 -13.7346 32.899 -19.019v-36.753
c0.00131187 -11.1166 7.57971 -20.476 17.842 -23.206c41.761 -11.107 86.117 -11.122 127.93 -0.001c10.519 2.798 17.844 12.321 17.844 23.206v36.753c11.6086 5.2852 22.6304 11.6713 32.899 19.019l31.785 -18.358c9.41 -5.435 21.305 -3.877 28.985 3.811
c30.216 30.25 52.654 68.266 64.058 110.797c2.819 10.512 -1.751 21.613 -11.177 27.054l-31.843 18.382c1.22 12.65 1.22 25.35 0 38zM399.836 147.981l43.819 -25.289c-7.94888 -21.468 -19.4678 -41.247 -33.849 -58.528l-43.829 25.309
c-31.984 -27.397 -36.659 -30.077 -76.168 -44.029v-50.599c-11.051 -1.88649 -22.4086 -2.86918 -33.9939 -2.86918c-11.5853 -1.42109e-14 -22.5731 0.982686 -33.6241 2.86918v50.599c-39.504 13.95 -44.196 16.642 -76.168 44.029l-43.829 -25.309
c-14.381 17.2812 -25.8999 37.0601 -33.849 58.528l43.819 25.289c-7.63 41.299 -7.634 46.719 0 88.038l-43.819 25.289c7.85 21.229 19.31 41.049 33.849 58.529l43.829 -25.309c31.984 27.397 36.66 30.078 76.168 44.029v50.598
c11.051 1.88649 22.4086 2.86918 33.9939 2.86918c11.5853 0 22.5731 -0.982686 33.6241 -2.86918v-50.599c39.504 -13.95 44.196 -16.642 76.168 -44.029l43.829 25.309c14.3812 -17.2814 25.9001 -37.0607 33.849 -58.529l-43.819 -25.289
c7.631 -41.3 7.634 -46.718 0 -88.037zM256 288c-52.935 0 -96 -43.065 -96 -96s43.065 -96 96 -96s96 43.065 96 96s-43.065 96 -96 96zM256 144c-26.468 0 -48 21.532 -48 48c0 26.467 21.532 48 48 48c26.468 0 48 -21.533 48 -48c0 -26.468 -21.532 -48 -48 -48z" />
    <glyph glyph-name="cogs" unicode="&#xf085;" horiz-adv-x="640" 
d="M217.1 -30.1c-23.8 0 -41.6 3.5 -57.5 7.5c-10.6 2.7 -18.1 12.3 -18.1 23.3v31.7c-9.4 4.4 -18.4 9.6 -26.9 15.6l-26.7 -15.4c-9.6 -5.6 -21.9 -3.8 -29.5 4.3c-35.4 37.6 -44.2 58.6 -57.2 98.5c-3.6 10.9 1.1 22.7 11 28.4l26.8 15c-0.9 10.3 -0.9 20.7 0 31.1
l-26.8 15.1c-10 5.6 -14.6 17.5 -11 28.4c13.1 40 21.9 60.9 57.2 98.5c7.6 8.1 19.8 9.9 29.5 4.3l26.7 -15.4c8.5 6 17.5 11.2 26.9 15.6v30.2c0 11.1 7.6 20.8 18.4 23.3c44.2 10.5 70 10.5 114.3 0c10.8 -2.6 18.4 -12.2 18.4 -23.3v-30.4
c9.4 -4.4 18.4 -9.6 26.9 -15.6l26.7 15.4c9.7 5.6 21.9 3.7 29.6 -4.4c26.1 -27.9 48.4 -58.5 56.8 -100.3c2 -9.8 -2.4 -19.8 -10.9 -25.1l-26.6 -16.5c0.9 -10.3 0.9 -20.7 0 -31.1l26.6 -16.5c8.4 -5.2 12.9 -15.2 10.9 -24.9c-8.1 -40.5 -29.6 -71.3 -56.9 -100.6
c-7.6 -8.1 -19.8 -9.9 -29.5 -4.3l-26.7 15.4c-8.5 -6 -17.5 -11.2 -26.9 -15.6v-31.7c0 -11 -7.4 -20.6 -18.1 -23.3c-15.8 -3.8 -33.6 -7.2 -57.4 -7.2zM189.5 20.6c18.3 -2.9 36.9 -2.9 55.1 0v44.8l16 5.7c15.2 5.4 29.1 13.4 41.3 23.9l12.9 11l38.8 -22.4
c11.7 14.4 21 30.5 27.6 47.7l-38.8 22.4l3.1 16.7c2.9 15.9 2.9 32 0 47.9l-3.1 16.7l38.8 22.4c-6.6 17.2 -15.9 33.3 -27.6 47.7l-38.8 -22.4l-12.9 11c-12.3 10.5 -26.2 18.6 -41.3 23.9l-16 5.7v44.7c-18.3 2.9 -36.9 2.9 -55.1 0v-44.8l-16 -5.7
c-15.2 -5.4 -29.1 -13.4 -41.3 -23.9l-12.9 -11l-38.8 22.4c-11.7 -14.4 -21 -30.5 -27.6 -47.7l38.8 -22.4l-3.1 -16.7c-2.9 -15.9 -2.9 -32 0 -47.9l3.1 -16.7l-38.8 -22.4c6.6 -17.2 15.9 -33.4 27.6 -47.7l38.8 22.4l12.9 -11c12.3 -10.5 26.2 -18.6 41.3 -23.9l16 -5.7
v-44.7zM216.6 105.7c-22.6 0 -45.2 8.6 -62.4 25.8c-34.4 34.4 -34.4 90.4 0 124.8c34.4 34.4 90.4 34.4 124.8 0c34.4 -34.4 34.4 -90.4 0 -124.8c-17.3 -17.2 -39.9 -25.8 -62.4 -25.8zM216.6 234.1c-10.3 0 -20.6 -3.9 -28.5 -11.8c-15.7 -15.7 -15.7 -41.2 0 -56.9
c15.7 -15.7 41.2 -15.7 56.9 0c15.7 15.7 15.7 41.2 0 56.9c-7.8 7.9 -18.1 11.8 -28.4 11.8zM638.5 363c-1 5.8 -6 10 -11.9 10h-16.1c-3.5 9.9 -8.8 19 -15.5 26.8l8 13.9c2.9 5.1 1.8 11.6 -2.7 15.3c-9.3 7.7 -19.8 13.9 -31.3 18.2c-5.5 2.1 -11.8 -0.1 -14.7 -5.3
l-8 -13.9c-10.2 1.9 -20.7 1.9 -30.9 0l-8 13.9c-3 5.1 -9.2 7.3 -14.7 5.3c-11.5 -4.3 -22.1 -10.5 -31.4 -18.2c-4.5 -3.7 -5.7 -10.2 -2.7 -15.3l8 -13.9c-6.7 -7.8 -12 -16.9 -15.5 -26.8h-16.1c-5.9 0 -11 -4.3 -11.9 -10.2c-2 -12.2 -1.9 -24.5 0 -36.2
c1 -5.8 6 -10 11.9 -10h16.1c3.5 -9.9 8.8 -19 15.5 -26.8l-8 -13.9c-2.9 -5.1 -1.8 -11.6 2.7 -15.3c9.3 -7.7 19.9 -13.9 31.4 -18.2c5.5 -2.1 11.8 0.1 14.7 5.3l8 13.9c10.2 -1.9 20.7 -1.9 30.9 0l8 -13.9c3 -5.1 9.2 -7.3 14.7 -5.3c11.5 4.3 22.1 10.5 31.4 18.2
c4.5 3.7 5.7 10.2 2.7 15.3l-8 13.9c6.7 7.8 12 16.9 15.5 26.8h16.1c5.9 0 11 4.3 11.9 10.2c1.9 12.2 1.9 24.4 -0.1 36.2zM530.7 312.8c-17.7 0 -32 14.3 -32 32s14.3 32 32 32s32 -14.3 32 -32s-14.3 -32 -32 -32zM638.5 57.4c-1 5.8 -6 10 -11.9 10h-16.1
c-3.5 9.9 -8.8 19 -15.5 26.8l8 13.9c2.9 5.1 1.8 11.6 -2.7 15.3c-9.3 7.7 -19.9 13.9 -31.4 18.2c-5.5 2.1 -11.8 -0.1 -14.7 -5.3l-8 -13.9c-10.2 1.9 -20.7 1.9 -30.9 0l-8 13.9c-3 5.1 -9.2 7.3 -14.7 5.3c-11.5 -4.3 -22.1 -10.5 -31.4 -18.2
c-4.5 -3.7 -5.7 -10.2 -2.7 -15.3l8 -13.9c-6.7 -7.8 -12 -16.9 -15.5 -26.8h-16.1c-5.9 0 -11 -4.3 -11.9 -10.2c-2 -12.2 -1.9 -24.5 0 -36.2c1 -5.8 6 -10 11.9 -10h16.1c3.5 -9.9 8.8 -19 15.5 -26.8l-8 -13.9c-2.9 -5.1 -1.8 -11.6 2.7 -15.3
c9.3 -7.7 19.9 -13.9 31.4 -18.2c5.5 -2.1 11.8 0.1 14.7 5.3l8 13.9c10.2 -1.9 20.7 -1.9 30.9 0l8 -13.9c3 -5.1 9.2 -7.3 14.7 -5.3c11.5 4.3 22.1 10.5 31.4 18.2c4.5 3.7 5.7 10.2 2.7 15.3l-8 13.9c6.7 7.8 12 16.9 15.5 26.8h16.1c5.9 0 11 4.3 11.9 10.2
c2 12.1 2 24.4 0 36.2zM530.7 7.2c-17.7 0 -32 14.3 -32 32s14.3 32 32 32s32 -14.3 32 -32s-14.3 -32 -32 -32z" />
    <glyph glyph-name="columns" unicode="&#xf0db;" 
d="M464 416h-416c-26.51 0 -48 -21.49 -48 -48v-352c0 -26.51 21.49 -48 48 -48h416c26.51 0 48 21.49 48 48v352c0 26.51 -21.49 48 -48 48zM232 16h-178c-3.31149 0 -6 2.68851 -6 6v314h184v-320zM458 16h-178v320h184v-314c0 -3.31149 -2.68851 -6 -6 -6z" />
    <glyph glyph-name="comment-alt-check" unicode="&#xf4a2;" 
d="M448 448h-384c-35.3 0 -64 -28.7 -64 -64v-288c0 -35.3 28.7 -64 64 -64h96v-84c0 -7.1 5.8 -12 12 -12c2.4 0 4.9 0.7 7.1 2.4l124.9 93.6h144c35.3 0 64 28.7 64 64v288c0 35.3 -28.7 64 -64 64zM464 96c0 -8.8 -7.2 -16 -16 -16h-160l-12.8 -9.6l-67.2 -50.4v60h-144
c-8.8 0 -16 7.2 -16 16v288c0 8.8 7.2 16 16 16h384c8.8 0 16 -7.2 16 -16v-288zM332.7 317.6c-3.8 3.9 -10.1 3.9 -14 0.1l-87.3 -86.7l-37.9 38.2c-3.8 3.9 -10.1 3.9 -14 0.1l-23.4 -23.2c-3.9 -3.8 -3.9 -10.1 -0.1 -14l68.1 -68.6c3.8 -3.9 10.1 -3.9 14 -0.1
l117.8 116.8c3.9 3.8 3.9 10.1 0.1 14z" />
    <glyph glyph-name="comment-alt-dots" unicode="&#xf4a3;" 
d="M448 448h-384c-35.3 0 -64 -28.7 -64 -64v-288c0 -35.3 28.7 -64 64 -64h96v-84c0 -7.1 5.8 -12 12 -12c2.4 0 4.9 0.7 7.1 2.4l124.9 93.6h144c35.3 0 64 28.7 64 64v288c0 35.3 -28.7 64 -64 64zM464 96c0 -8.8 -7.2 -16 -16 -16h-160l-12.8 -9.6l-67.2 -50.4v60h-144
c-8.8 0 -16 7.2 -16 16v288c0 8.8 7.2 16 16 16h384c8.8 0 16 -7.2 16 -16v-288zM128 272c-17.7 0 -32 -14.3 -32 -32s14.3 -32 32 -32c17.7 0 32 14.3 32 32s-14.3 32 -32 32zM256 272c-17.7 0 -32 -14.3 -32 -32s14.3 -32 32 -32s32 14.3 32 32s-14.3 32 -32 32zM384 272
c-17.7 0 -32 -14.3 -32 -32s14.3 -32 32 -32s32 14.3 32 32s-14.3 32 -32 32z" />
    <glyph glyph-name="comment-alt-edit" unicode="&#xf4a4;" 
d="M448 448h-384c-35.3 0 -64 -28.7 -64 -64v-288c0 -35.3 28.7 -64 64 -64h96v-84c0 -7.1 5.8 -12 12 -12c2.4 0 4.9 0.7 7.1 2.4l124.9 93.6h144c35.3 0 64 28.7 64 64v288c0 35.3 -28.7 64 -64 64zM464 96c0 -8.8 -7.2 -16 -16 -16h-160l-12.8 -9.6l-67.2 -50.4v60h-144
c-8.8 0 -16 7.2 -16 16v288c0 8.8 7.2 16 16 16h384c8.8 0 16 -7.2 16 -16v-288zM164.9 204.8l-4.8 -42.8c-0.6 -5.7 4.2 -10.6 10 -10l42.8 4.8l85.5 85.5l-48 48zM324.2 338.7c-7 7 -18.4 7 -25.4 0l-28.3 -28.3l48 -48l28.3 28.3c7 7 7 18.4 0 25.4z" />
    <glyph glyph-name="comment-alt-lines" unicode="&#xf4a6;" 
d="M448 448h-384c-35.3 0 -64 -28.7 -64 -64v-288c0 -35.3 28.7 -64 64 -64h96v-84c0 -7.1 5.8 -12 12 -12c2.4 0 4.9 0.7 7.1 2.4l124.9 93.6h144c35.3 0 64 28.7 64 64v288c0 35.3 -28.7 64 -64 64zM464 96c0 -8.8 -7.2 -16 -16 -16h-160l-12.8 -9.6l-67.2 -50.4v60h-144
c-8.8 0 -16 7.2 -16 16v288c0 8.8 7.2 16 16 16h384c8.8 0 16 -7.2 16 -16v-288zM368 312h-224c-8.8 0 -16 -7.2 -16 -16v-16c0 -8.8 7.2 -16 16 -16h224c8.8 0 16 7.2 16 16v16c0 8.8 -7.2 16 -16 16zM272 216h-128c-8.8 0 -16 -7.2 -16 -16v-16c0 -8.8 7.2 -16 16 -16h128
c8.8 0 16 7.2 16 16v16c0 8.8 -7.2 16 -16 16z" />
    <glyph glyph-name="comment-alt" unicode="&#xf27a;" 
d="M448 448h-384c-35.3 0 -64 -28.7 -64 -64v-288c0 -35.3 28.7 -64 64 -64h96v-84c0 -7.1 5.8 -12 12 -12c2.4 0 4.9 0.7 7.1 2.4l124.9 93.6h144c35.3 0 64 28.7 64 64v288c0 35.3 -28.7 64 -64 64zM464 96c0 -8.8 -7.2 -16 -16 -16h-160l-12.8 -9.6l-67.2 -50.4v60h-144
c-8.8 0 -16 7.2 -16 16v288c0 8.8 7.2 16 16 16h384c8.8 0 16 -7.2 16 -16v-288z" />
    <glyph glyph-name="comment-check" unicode="&#xf4ac;" 
d="M332.7 285.6c-3.8 3.9 -10.1 3.9 -14 0.1l-87.3 -86.7l-37.9 38.2c-3.8 3.9 -10.1 3.9 -14 0.1l-23.4 -23.2c-3.9 -3.8 -3.9 -10.1 -0.1 -14l68.1 -68.6c3.8 -3.9 10.1 -3.9 14 -0.1l117.8 116.8c3.9 3.8 3.9 10.1 0.1 14zM256 416c-141.4 0 -256 -93.1 -256 -208
c0 -47.6 19.9 -91.2 52.9 -126.3c-14.9 -39.4 -45.9 -72.8 -46.4 -73.2c-6.6 -7 -8.4 -17.2 -4.6 -26c3.8 -8.8 12.5 -14.5 22.1 -14.5c61.5 0 110 25.7 139.1 46.3c28.9 -9.1 60.1 -14.3 92.9 -14.3c141.4 0 256 93.1 256 208c0 114.9 -114.6 208 -256 208zM256 48
c-26.7 0 -53.1 4.1 -78.4 12.1l-22.7 7.2l-19.5 -13.8c-14.3 -10.1 -33.9 -21.4 -57.5 -29c7.3 12.1 14.4 25.7 19.9 40.2l10.6 28.1l-20.6 21.8c-18.1 19.3 -39.8 51.2 -39.8 93.4c0 88.2 93.3 160 208 160s208 -71.8 208 -160s-93.3 -160 -208 -160z" />
    <glyph glyph-name="comment-dots" unicode="&#xf4ad;" 
d="M144 240c-17.7 0 -32 -14.3 -32 -32s14.3 -32 32 -32c17.7 0 32 14.3 32 32s-14.3 32 -32 32zM256 240c-17.7 0 -32 -14.3 -32 -32s14.3 -32 32 -32s32 14.3 32 32s-14.3 32 -32 32zM368 240c-17.7 0 -32 -14.3 -32 -32s14.3 -32 32 -32s32 14.3 32 32s-14.3 32 -32 32z
M256 416c-141.4 0 -256 -93.1 -256 -208c0 -47.6 19.9 -91.2 52.9 -126.3c-14.9 -39.4 -45.9 -72.8 -46.4 -73.2c-6.6 -7 -8.4 -17.2 -4.6 -26c3.8 -8.8 12.5 -14.5 22.1 -14.5c61.5 0 110 25.7 139.1 46.3c28.9 -9.1 60.1 -14.3 92.9 -14.3c141.4 0 256 93.1 256 208
c0 114.9 -114.6 208 -256 208zM256 48c-26.7 0 -53.1 4.1 -78.4 12.1l-22.7 7.2l-19.5 -13.8c-14.3 -10.1 -33.9 -21.4 -57.5 -29c7.3 12.1 14.4 25.7 19.9 40.2l10.6 28.1l-20.6 21.8c-18.1 19.3 -39.8 51.2 -39.8 93.4c0 88.2 93.3 160 208 160s208 -71.8 208 -160
s-93.3 -160 -208 -160z" />
    <glyph glyph-name="comment-edit" unicode="&#xf4ae;" 
d="M164.9 172.8l-4.8 -42.8c-0.6 -5.7 4.2 -10.6 10 -10l42.8 4.8l85.5 85.5l-48 48zM324.2 306.7c-7 7 -18.4 7 -25.4 0l-28.3 -28.3l48 -48l28.3 28.3c7 7 7 18.4 0 25.4zM256 416c-141.4 0 -256 -93.1 -256 -208c0 -47.6 19.9 -91.2 52.9 -126.3
c-14.9 -39.4 -45.9 -72.8 -46.4 -73.2c-6.6 -7 -8.4 -17.2 -4.6 -26c3.8 -8.8 12.5 -14.5 22.1 -14.5c61.5 0 110 25.7 139.1 46.3c28.9 -9.1 60.1 -14.3 92.9 -14.3c141.4 0 256 93.1 256 208c0 114.9 -114.6 208 -256 208zM256 48c-26.7 0 -53.1 4.1 -78.4 12.1l-22.7 7.2
l-19.5 -13.8c-14.3 -10.1 -33.9 -21.4 -57.5 -29c7.3 12.1 14.4 25.7 19.9 40.2l10.6 28.1l-20.6 21.8c-18.1 19.3 -39.8 51.2 -39.8 93.4c0 88.2 93.3 160 208 160s208 -71.8 208 -160s-93.3 -160 -208 -160z" />
    <glyph glyph-name="comment-exclamation" unicode="&#xf4af;" 
d="M256 160c-17.7 0 -32 -14.3 -32 -32s14.3 -32 32 -32s32 14.3 32 32c0 17.7 -14.3 32 -32 32zM284.7 320h-57.4c-10 0 -17.6 -9.1 -15.7 -18.9l18 -96c1.4 -7.6 8 -13.1 15.7 -13.1h21.4c7.7 0 14.3 5.5 15.7 13.1l18 96c1.9 9.8 -5.7 18.9 -15.7 18.9zM256 416
c-141.4 0 -256 -93.1 -256 -208c0 -47.6 19.9 -91.2 52.9 -126.3c-14.9 -39.4 -45.9 -72.8 -46.4 -73.2c-6.6 -7 -8.4 -17.2 -4.6 -26c3.8 -8.8 12.5 -14.5 22.1 -14.5c61.5 0 110 25.7 139.1 46.3c28.9 -9.1 60.1 -14.3 92.9 -14.3c141.4 0 256 93.1 256 208
c0 114.9 -114.6 208 -256 208zM256 48c-26.7 0 -53.1 4.1 -78.4 12.1l-22.7 7.2l-19.5 -13.8c-14.3 -10.1 -33.9 -21.4 -57.5 -29c7.3 12.1 14.4 25.7 19.9 40.2l10.6 28.1l-20.6 21.8c-18.1 19.3 -39.8 51.2 -39.8 93.4c0 88.2 93.3 160 208 160s208 -71.8 208 -160
s-93.3 -160 -208 -160z" />
    <glyph glyph-name="comment-lines" unicode="&#xf4b0;" 
d="M368 280h-224c-8.8 0 -16 -7.2 -16 -16v-16c0 -8.8 7.2 -16 16 -16h224c8.8 0 16 7.2 16 16v16c0 8.8 -7.2 16 -16 16zM272 184h-128c-8.8 0 -16 -7.2 -16 -16v-16c0 -8.8 7.2 -16 16 -16h128c8.8 0 16 7.2 16 16v16c0 8.8 -7.2 16 -16 16zM256 416
c-141.4 0 -256 -93.1 -256 -208c0 -47.6 19.9 -91.2 52.9 -126.3c-14.9 -39.4 -45.9 -72.8 -46.4 -73.2c-6.6 -7 -8.4 -17.2 -4.6 -26c3.8 -8.8 12.5 -14.5 22.1 -14.5c61.5 0 110 25.7 139.1 46.3c28.9 -9.1 60.1 -14.3 92.9 -14.3c141.4 0 256 93.1 256 208
c0 114.9 -114.6 208 -256 208zM256 48c-26.7 0 -53.1 4.1 -78.4 12.1l-22.7 7.2l-19.5 -13.8c-14.3 -10.1 -33.9 -21.4 -57.5 -29c7.3 12.1 14.4 25.7 19.9 40.2l10.6 28.1l-20.6 21.8c-18.1 19.3 -39.8 51.2 -39.8 93.4c0 88.2 93.3 160 208 160s208 -71.8 208 -160
s-93.3 -160 -208 -160z" />
    <glyph glyph-name="comment-times" unicode="&#xf4b5;" 
d="M329.5 270.2l-11.3 11.3c-6.2 6.2 -16.4 6.2 -22.6 0l-39.6 -39.6l-39.6 39.6c-6.2 6.2 -16.4 6.2 -22.6 0l-11.3 -11.3c-6.2 -6.2 -6.2 -16.4 0 -22.6l39.6 -39.6l-39.6 -39.6c-6.2 -6.2 -6.2 -16.4 0 -22.6l11.3 -11.3c6.2 -6.2 16.4 -6.2 22.6 0l39.6 39.6l39.6 -39.6
c6.2 -6.2 16.4 -6.2 22.6 0l11.3 11.3c6.2 6.2 6.2 16.4 0 22.6l-39.6 39.6l39.6 39.6c6.3 6.2 6.3 16.4 0 22.6zM256 416c-141.4 0 -256 -93.1 -256 -208c0 -47.6 19.9 -91.2 52.9 -126.3c-14.9 -39.4 -45.9 -72.8 -46.4 -73.2c-6.6 -7 -8.4 -17.2 -4.6 -26
c3.8 -8.8 12.5 -14.5 22.1 -14.5c61.5 0 110 25.7 139.1 46.3c28.9 -9.1 60.1 -14.3 92.9 -14.3c141.4 0 256 93.1 256 208c0 114.9 -114.6 208 -256 208zM256 48c-26.7 0 -53.1 4.1 -78.4 12.1l-22.7 7.2l-19.5 -13.8c-14.3 -10.1 -33.9 -21.4 -57.5 -29
c7.3 12.1 14.4 25.7 19.9 40.2l10.6 28.1l-20.6 21.8c-18.1 19.3 -39.8 51.2 -39.8 93.4c0 88.2 93.3 160 208 160s208 -71.8 208 -160s-93.3 -160 -208 -160z" />
    <glyph glyph-name="comment" unicode="&#xf075;" 
d="M256 416c-141.4 0 -256 -93.1 -256 -208c0 -47.6 19.9 -91.2 52.9 -126.3c-14.9 -39.4 -45.9 -72.8 -46.4 -73.2c-6.6 -7 -8.4 -17.2 -4.6 -26c3.8 -8.8 12.5 -14.5 22.1 -14.5c61.5 0 110 25.7 139.1 46.3c28.9 -9.1 60.1 -14.3 92.9 -14.3c141.4 0 256 93.1 256 208
c0 114.9 -114.6 208 -256 208zM256 48c-26.7 0 -53.1 4.1 -78.4 12.1l-22.7 7.2l-19.5 -13.8c-14.3 -10.1 -33.9 -21.4 -57.5 -29c7.3 12.1 14.4 25.7 19.9 40.2l10.6 28.1l-20.6 21.8c-18.1 19.3 -39.8 51.2 -39.8 93.4c0 88.2 93.3 160 208 160s208 -71.8 208 -160
s-93.3 -160 -208 -160z" />
    <glyph glyph-name="comments-alt" unicode="&#xf4b6;" horiz-adv-x="576" 
d="M512 288h-96v96c0 35.3 -28.7 64 -64 64h-288c-35.3 0 -64 -28.7 -64 -64v-160c0 -35.3 28.7 -64 64 -64h32v-52c0 -7.1 5.8 -12 12 -12c2.4 0 4.9 0.7 7.1 2.4l76.9 43.5v-77.9c0 -35.3 28.7 -64 64 -64h96l108.9 -61.6c2.2 -1.6 4.7 -2.4 7.1 -2.4c6.2 0 12 4.9 12 12
v52h32c35.3 0 64 28.7 64 64v160c0 35.3 -28.7 64 -64 64zM96 208h-32c-8.8 0 -16 7.2 -16 16v160c0 8.8 7.2 16 16 16h288c8.8 0 16 -7.2 16 -16v-160c0 -8.8 -7.2 -16 -16 -16h-140.6l-11 -6.2l-56.4 -31.9v38.1h-48zM528 64c0 -8.8 -7.2 -16 -16 -16h-80v-38.1
l-56.4 31.9l-11 6.2h-108.6c-8.8 0 -16 7.2 -16 16v96h112c35.3 0 64 28.7 64 64v16h96c8.8 0 16 -7.2 16 -16v-160z" />
    <glyph glyph-name="comments" unicode="&#xf086;" horiz-adv-x="576" 
d="M532 61.8c27.5 27.1 44 61.1 44 98.2c0 80 -76.5 146.1 -176.2 157.9c-31.5 57.6 -105.5 98.1 -191.8 98.1c-114.9 0 -208 -71.6 -208 -160c0 -37 16.5 -71 44 -98.2c-15.3 -30.7 -37.3 -54.5 -37.7 -54.9c-6.3 -6.7 -8.1 -16.5 -4.4 -25c3.6 -8.5 12 -14 21.2 -14
c53.5 0 96.7 20.2 125.2 38.8c9.2 -2.1 18.7 -3.7 28.4 -4.9c31.4 -57.4 105.1 -97.8 191.3 -97.8c20.8 0 40.8 2.4 59.8 6.8c28.5 -18.5 71.6 -38.8 125.2 -38.8c9.2 0 17.5 5.5 21.2 14c3.6 8.5 1.9 18.3 -4.4 25c-0.4 0.3 -22.5 24.1 -37.8 54.8zM139.2 154.1
l-17.1 -11.1c-14.1 -9.1 -28.5 -16.3 -43.1 -21.4c2.7 4.7 5.4 9.7 8 14.8l15.5 31.1l-24.8 24.5c-13.5 13.4 -29.7 35.3 -29.7 64c0 60.7 73.3 112 160 112c86.7 0 160 -51.3 160 -112s-73.3 -112 -160 -112c-16.5 0 -33 1.9 -49 5.6zM498.3 96l-24.7 -24.4l15.5 -31.1
c2.6 -5.1 5.3 -10.1 8 -14.8c-14.6 5.1 -29 12.3 -43.1 21.4l-17.1 11.1l-19.9 -4.6c-16 -3.7 -32.5 -5.6 -49 -5.6c-54 0 -102.2 20.1 -131.3 49.7c101.3 10.8 179.3 77.4 179.3 158.3c0 3.4 -0.4 6.7 -0.7 10c64.4 -14.5 112.7 -56.8 112.7 -106
c0 -28.7 -16.2 -50.6 -29.7 -64z" />
    <glyph glyph-name="copy" unicode="&#xf0c5;" horiz-adv-x="448" 
d="M433.941 382.059l-51.882 51.882c-8.68846 8.68853 -20.6951 14.0589 -33.941 14.059h-172.118c-26.51 0 -48 -21.49 -48 -48v-48h-80c-26.51 0 -48 -21.49 -48 -48v-320c0 -26.51 21.49 -48 48 -48h224c26.51 0 48 21.49 48 48v48h80c26.51 0 48 21.49 48 48v268.118
c-6.92635e-05 13.2459 -5.37047 25.2525 -14.059 33.941zM266 -16h-212c-3.31149 0 -6 2.68851 -6 6v308c0 3.31149 2.68851 6 6 6h74v-224c0 -26.51 21.49 -48 48 -48h96v-42c0 -3.31149 -2.68851 -6 -6 -6zM394 80h-212c-3.31149 0 -6 2.68851 -6 6v308
c0 3.31149 2.68851 6 6 6h106v-88c0 -13.255 10.745 -24 24 -24h88v-202c0 -3.31149 -2.68851 -6 -6 -6zM400 336h-64v64h9.632c1.591 0 3.117 -0.632 4.243 -1.757l48.368 -48.368c1.08585 -1.08604 1.757 -2.58744 1.757 -4.243v-9.632z" />
    <glyph glyph-name="cube" unicode="&#xf1b2;" 
d="M239.1 440.5l-208 -78c-18.7 -7 -31.1 -25 -31.1 -45v-225.1c0 -18.2 10.3 -34.8 26.5 -42.9l208 -104c13.5 -6.8 29.4 -6.8 42.9 0l208 104c16.3 8.1 26.5 24.8 26.5 42.9v225.1c0 20 -12.4 37.9 -31.1 44.9l-208 78c-10.8 4.2 -22.8 4.2 -33.7 0.1zM256 395.5l208 -78
v-0.3l-208 -84.5l-208 84.5v0.3zM48 265.4l184 -74.8v-190.2l-184 92v173zM280 0.5v190.1l184 74.8v-172.9z" />
    <glyph glyph-name="cubes" unicode="&#xf1b3;" 
d="M384 232.9v112.6c0 15 -9.3 28.4 -23.4 33.7l-92 34.5c-8.1 3.1 -17.1 3.1 -25.3 0l-92 -34.5c-14.1 -5.3 -23.4 -18.7 -23.4 -33.7v-112.6l-104.5 -39.3c-14.1 -5.2 -23.4 -18.7 -23.4 -33.7v-106.6c0 -13.6 7.7 -26.1 19.9 -32.2l98.6 -49.3
c10.1 -5.1 22.1 -5.1 32.2 0l105.3 52.6l105.3 -52.6c10.1 -5.1 22.1 -5.1 32.2 0l98.6 49.3c12.2 6.1 19.9 18.6 19.9 32.2v106.6c0 15 -9.3 28.4 -23.4 33.7zM268 198.1v97.9l92 31.7v-97.6zM152 353.8l104 39l104 -39v-0.2l-104 -36.6l-104 36.7v0.1zM152 327.7l92 -31.7
v-97.9l-92 32v97.6zM122 -1.7l-96.8 48.4v93.3l96.8 -39.3v-102.4zM25.2 167.2v0.2l109.4 41l108.1 -40.5v-1.2l-108.1 -43.9zM147.2 100.7l95.5 38.8v-93.5l-95.5 -47.8v102.5zM364.8 -1.7l-95.5 47.7v93.4l95.5 -38.8v-102.3zM486.8 46.7l-96.8 -48.4v102.4l96.8 39.3
v-93.3zM486.8 167.2l-109.4 -44.4l-108.1 43.9v1.2l108.1 40.5l109.4 -41v-0.2z" />
    <glyph glyph-name="database" unicode="&#xf1c0;" horiz-adv-x="448" 
d="M224 400c97.167 0 176 -27.723 176 -61.714v-4.571c0 -33.992 -78.833 -61.715 -176 -61.715s-176 27.723 -176 61.714v4.571c0 33.992 78.833 61.715 176 61.715zM400 264.982v-26.399c0 -33.991 -78.833 -61.714 -176 -61.714s-176 27.723 -176 61.714v26.399
c37.813 -27.964 107.021 -40.982 176 -40.982c68.979 0 138.187 13.018 176 40.982zM400 168.982v-26.834c0 -33.991 -78.833 -61.714 -176 -61.714s-176 27.724 -176 61.715v26.834c37.813 -27.965 107.021 -40.983 176 -40.983c68.979 0 138.187 13.018 176 40.982z
M400 72.982v-27.268c0 -33.991 -78.833 -61.714 -176 -61.714s-176 27.723 -176 61.714v27.268c37.813 -27.964 107.021 -40.982 176 -40.982c68.979 0 138.187 13.018 176 40.982zM224 448c-86.948 0 -224 -23.26 -224 -109.714v-292.571
c0 -86.473 137.03 -109.715 224 -109.715c86.948 0 224 23.26 224 109.714v292.572c0 86.472 -137.03 109.714 -224 109.714z" />
    <glyph glyph-name="download" unicode="&#xf019;" horiz-adv-x="576" 
d="M528 160h-92.1l46.1 46.1c30.1 30.1 8.8 81.9 -33.9 81.9h-64v112c0 26.5 -21.5 48 -48 48h-96c-26.5 0 -48 -21.5 -48 -48v-112h-64c-42.6 0 -64.2 -51.7 -33.9 -81.9l46.1 -46.1h-92.3c-26.5 0 -48 -21.5 -48 -48v-128c0 -26.5 21.5 -48 48 -48h480
c26.5 0 48 21.5 48 48v128c0 26.5 -21.5 48 -48 48zM128 240h112v160h96v-160h112l-160 -160zM528 -16h-480v128h140.1l65.9 -65.9c18.8 -18.8 49.1 -18.7 67.9 0l65.9 65.9h140.2v-128zM440 48c0 13.3 10.7 24 24 24s24 -10.7 24 -24s-10.7 -24 -24 -24s-24 10.7 -24 24z
" />
    <glyph glyph-name="edit" unicode="&#xf044;" horiz-adv-x="576" 
d="M402.3 103.1l32 32c5 5 13.7 1.5 13.7 -5.7v-145.4c0 -26.5 -21.5 -48 -48 -48h-352c-26.5 0 -48 21.5 -48 48v352c0 26.5 21.5 48 48 48h273.5c7.1 0 10.7 -8.6 5.7 -13.7l-32 -32c-1.5 -1.5 -3.5 -2.3 -5.7 -2.3h-241.5v-352h352v113.5c0 2.1 0.8 4.1 2.3 5.6z
M558.9 304.9l-262.6 -262.6l-90.4 -10c-26.2 -2.9 -48.5 19.2 -45.6 45.6l10 90.4l262.6 262.6c22.9 22.9 59.9 22.9 82.7 0l43.2 -43.2c22.9 -22.9 22.9 -60 0.1 -82.8zM460.1 274l-58.1 58.1l-185.8 -185.9l-7.3 -65.3l65.3 7.3zM524.9 353.7l-43.2 43.2
c-4.1 4.1 -10.8 4.1 -14.8 0l-30.9 -30.9l58.1 -58.1l30.9 30.9c4 4.2 4 10.8 -0.1 14.9z" />
    <glyph glyph-name="ellipsis-h" unicode="&#xf141;" 
d="M304 192c0 -26.5 -21.5 -48 -48 -48s-48 21.5 -48 48s21.5 48 48 48s48 -21.5 48 -48zM424 240c-26.5 0 -48 -21.5 -48 -48s21.5 -48 48 -48s48 21.5 48 48s-21.5 48 -48 48zM88 240c-26.5 0 -48 -21.5 -48 -48s21.5 -48 48 -48s48 21.5 48 48s-21.5 48 -48 48z" />
    <glyph glyph-name="ellipsis-v" unicode="&#xf142;" horiz-adv-x="128" 
d="M64 240c26.5 0 48 -21.5 48 -48s-21.5 -48 -48 -48s-48 21.5 -48 48s21.5 48 48 48zM16 344c0 -26.5 21.5 -48 48 -48s48 21.5 48 48s-21.5 48 -48 48s-48 -21.5 -48 -48zM16 40c0 -26.5 21.5 -48 48 -48s48 21.5 48 48s-21.5 48 -48 48s-48 -21.5 -48 -48z" />
    <glyph glyph-name="envelope-open" unicode="&#xf2b6;" 
d="M494.586 283.484c-4.697 3.883 -111.723 89.95 -135.251 108.657c-22.104 17.668 -59.898 55.859 -103.335 55.859c-43.205 0 -80.636 -37.717 -103.335 -55.859c-24.463 -19.45 -131.07 -105.195 -135.15 -108.549c-10.7102 -8.80682 -17.5146 -22.1422 -17.515 -37.077
v-262.515c0 -26.51 21.49 -48 48 -48h416c26.51 0 48 21.49 48 48v262.491c-6.10154e-05 14.8874 -6.762 28.1859 -17.414 36.993zM464 -10c0 -3.31149 -2.68851 -6 -6 -6h-404c-3.31149 0 -6 2.68851 -6 6v253.653c0 1.813 0.816 3.526 2.226 4.665
c15.87 12.814 108.793 87.554 132.364 106.293c18.165 14.509 49.808 45.389 73.41 45.389c23.693 0 55.857 -31.369 73.41 -45.389c23.573 -18.741 116.503 -93.493 132.366 -106.316c1.35868 -1.09848 2.2281 -2.77859 2.2281 -4.66016
c0 -0.00168509 -0.00409773 -0.00115327 -0.00409912 -0.00283803zM432.009 177.704c4.249 -5.159 3.465 -12.795 -1.745 -16.981c-28.975 -23.283 -59.274 -47.597 -70.929 -56.863c-22.699 -18.143 -60.13 -55.86 -103.335 -55.86
c-43.452 0 -81.287 38.237 -103.335 55.86c-11.279 8.967 -41.744 33.413 -70.927 56.865c-5.21 4.187 -5.993 11.822 -1.745 16.981l15.258 18.528c4.178 5.073 11.657 5.843 16.779 1.726c28.618 -23.001 58.566 -47.035 70.56 -56.571
c17.553 -14.02 49.717 -45.389 73.41 -45.389c23.602 0 55.246 30.88 73.41 45.389c11.994 9.535 41.944 33.57 70.563 56.568c5.122 4.116 12.601 3.346 16.778 -1.727z" />
    <glyph glyph-name="envelope" unicode="&#xf0e0;" 
d="M464 384h-416c-26.51 0 -48 -21.49 -48 -48v-288c0 -26.51 21.49 -48 48 -48h416c26.51 0 48 21.49 48 48v288c0 26.51 -21.49 48 -48 48zM464 336v-40.805c-22.422 -18.259 -58.168 -46.651 -134.587 -106.49c-16.841 -13.247 -50.201 -45.072 -73.413 -44.701
c-23.208 -0.375 -56.579 31.459 -73.413 44.701c-76.407 59.83 -112.162 88.228 -134.587 106.49v40.805h416zM48 48v185.602c22.914 -18.251 55.409 -43.862 104.938 -82.646c21.857 -17.205 60.134 -55.186 103.062 -54.955c42.717 -0.231 80.509 37.199 103.053 54.947
c49.528 38.783 82.032 64.401 104.947 82.653v-185.601h-416z" />
    <glyph glyph-name="equals" unicode="&#xf52c;" horiz-adv-x="384" 
d="M368 144h-352c-8.84 0 -16 -7.16 -16 -16v-32c0 -8.84 7.16 -16 16 -16h352c8.84 0 16 7.16 16 16v32c0 8.84 -7.16 16 -16 16zM368 304h-352c-8.84 0 -16 -7.16 -16 -16v-32c0 -8.84 7.16 -16 16 -16h352c8.84 0 16 7.16 16 16v32c0 8.84 -7.16 16 -16 16z" />
    <glyph glyph-name="exclamation-circle" unicode="&#xf06a;" 
d="M256 440c-136.957 0 -248 -111.083 -248 -248c0 -136.997 111.043 -248 248 -248s248 111.003 248 248c0 136.917 -111.043 248 -248 248zM256 -8c-110.532 0 -200 89.431 -200 200c0 110.495 89.472 200 200 200c110.491 0 200 -89.471 200 -200
c0 -110.53 -89.431 -200 -200 -200zM298 96c0 -23.159 -18.841 -42 -42 -42s-42 18.841 -42 42s18.841 42 42 42s42 -18.841 42 -42zM216.63 307.401l6.8 -136c0.319 -6.387 5.591 -11.401 11.985 -11.401h41.17c6.394 0 11.666 5.014 11.985 11.401l6.8 136
c0.343 6.854 -5.122 12.599 -11.985 12.599h-54.77c-6.863 0 -12.328 -5.745 -11.985 -12.599z" />
    <glyph glyph-name="exclamation-square" unicode="&#xf321;" horiz-adv-x="448" 
d="M448 368v-352c0 -26.51 -21.49 -48 -48 -48h-352c-26.51 0 -48 21.49 -48 48v352c0 26.51 21.49 48 48 48h352c26.51 0 48 -21.49 48 -48zM400 22v340c0 3.31149 -2.68851 6 -6 6h-340c-3.31149 0 -6 -2.68851 -6 -6v-340c0 -3.31149 2.68851 -6 6 -6h340
c3.31149 0 6 2.68851 6 6zM266 96c0 -23.159 -18.841 -42 -42 -42s-42 18.841 -42 42s18.841 42 42 42s42 -18.841 42 -42zM184.63 307.401l6.8 -136c0.319 -6.387 5.591 -11.401 11.985 -11.401h41.17c6.394 0 11.666 5.014 11.985 11.401l6.8 136
c0.343 6.854 -5.122 12.599 -11.985 12.599h-54.77c-6.863 0 -12.328 -5.745 -11.985 -12.599z" />
    <glyph glyph-name="exclamation-triangle" unicode="&#xf071;" horiz-adv-x="576" 
d="M248.747 243.295l6.588 -112c0.373 -6.343 5.626 -11.295 11.979 -11.295h41.37c6.38294 0.000145065 11.6088 5.00425 11.979 11.295l6.588 112c0.405 6.893 -5.075 12.705 -11.979 12.705h-54.547c-6.903 0 -12.383 -5.812 -11.978 -12.705zM330 64
c0 -23.196 -18.804 -42 -42 -42s-42 18.804 -42 42s18.804 42 42 42s42 -18.804 42 -42zM329.577 424.015c-18.433 31.951 -64.687 32.009 -83.154 0l-239.946 -416.028c-18.422 -31.933 4.641 -71.987 41.577 -71.987h479.886c36.865 0 60.035 39.993 41.577 71.987z
M53.191 -7.002l229.612 397.994c2.309 4.002 8.085 4.002 10.394 0l229.612 -397.993c2.308 -4 -0.579 -8.998 -5.197 -8.998h-459.224c-4.617 -0.001 -7.504 4.997 -5.197 8.997z" />
    <glyph glyph-name="external-link-square-alt" unicode="&#xf360;" horiz-adv-x="448" 
d="M400 416h-352c-26.51 0 -48 -21.49 -48 -48v-352c0 -26.51 21.49 -48 48 -48h352c26.51 0 48 21.49 48 48v352c0 26.51 -21.49 48 -48 48zM394 16h-340c-3.31149 0 -6 2.68851 -6 6v340c0 3.31149 2.68851 6 6 6h340c3.31149 0 6 -2.68851 6 -6v-340
c0 -3.31149 -2.68851 -6 -6 -6zM340 320h-135.985c-10.658 0 -16.039 -12.93 -8.485 -20.485l48.187 -48.201l-144.202 -144.202c-4.686 -4.686 -4.686 -12.284 0 -16.971l22.627 -22.627c4.687 -4.686 12.285 -4.686 16.971 0l144.201 144.201l48.201 -48.192
c7.513 -7.513 20.485 -2.235 20.485 8.485v135.992c0 6.627 -5.373 12 -12 12z" />
    <glyph glyph-name="external-link-square" unicode="&#xf14c;" horiz-adv-x="448" 
d="M400 416h-352c-26.51 0 -48 -21.49 -48 -48v-352c0 -26.51 21.49 -48 48 -48h352c26.51 0 48 21.49 48 48v352c0 26.51 -21.49 48 -48 48zM394 16h-340c-3.31149 0 -6 2.68851 -6 6v340c0 3.31149 2.68851 6 6 6h340c3.31149 0 6 -2.68851 6 -6v-340
c0 -3.31149 -2.68851 -6 -6 -6zM340 320l-136 -0.145c-6.627 0 -12 -5.373 -12 -12v-27.755c0 -6.722 5.522 -12.133 12.243 -11.998l58.001 2.141l-162.729 -162.728c-4.686 -4.686 -4.686 -12.284 0 -16.971l23.03 -23.029c4.686 -4.686 12.284 -4.686 16.97 0
l162.729 162.729l-2.141 -58.001c-0.136 -6.721 5.275 -12.242 11.998 -12.242h27.755c6.628 0 12 5.373 12 12l0.144 135.999c0 6.627 -5.373 12 -12 12z" />
    <glyph glyph-name="eye" unicode="&#xf06e;" horiz-adv-x="576" 
d="M569.354 216.369c-56.384 95.682 -161.544 159.631 -281.354 159.631c-119.86 0 -224.996 -63.994 -281.354 -159.631c-4.20373 -7.13329 -6.61591 -15.4462 -6.61591 -24.318c2.9074e-15 -8.87183 2.41218 -17.2877 6.61591 -24.421
c56.385 -95.681 161.544 -159.63 281.354 -159.63c119.86 0 224.996 63.994 281.354 159.631c4.20374 7.13311 6.61594 15.4458 6.61594 24.3175s-2.4122 17.2874 -6.61594 24.4205zM288 56c-102.556 0 -192.091 54.701 -240 136
c44.157 74.933 123.677 127.27 216.162 135.007c9.796 -10.085 15.838 -23.837 15.838 -39.007c0 -30.928 -25.072 -56 -56 -56s-56 25.072 -56 56l0.001 0.042c-10.207 -19.085 -16.001 -40.886 -16.001 -64.042c0 -75.111 60.889 -136 136 -136s136 60.889 136 136
c0 31.031 -10.4 59.629 -27.895 82.515c55.599 -23.153 101.904 -63.621 131.895 -114.515c-47.908 -81.299 -137.444 -136 -240 -136z" />
    <glyph glyph-name="file-alt" unicode="&#xf15c;" horiz-adv-x="384" 
d="M288 200v-28c0 -6.6 -5.4 -12 -12 -12h-168c-6.6 0 -12 5.4 -12 12v28c0 6.6 5.4 12 12 12h168c6.6 0 12 -5.4 12 -12zM276 128h-168c-6.6 0 -12 -5.4 -12 -12v-28c0 -6.6 5.4 -12 12 -12h168c6.6 0 12 5.4 12 12v28c0 6.6 -5.4 12 -12 12zM384 316.1v-332.1
c0 -26.5 -21.5 -48 -48 -48h-288c-26.5 0 -48 21.5 -48 48v416c0 26.5 21.5 48 48 48h204.1c12.7 0 24.9 -5.1 33.9 -14.1l83.9 -83.9c9 -8.9 14.1 -21.2 14.1 -33.9zM256 396.1v-76.1h76.1zM336 -16v288h-104c-13.3 0 -24 10.7 -24 24v104h-160v-416h288z" />
    <glyph glyph-name="file-image" unicode="&#xf1c5;" horiz-adv-x="384" 
d="M369.9 350.1l-83.9 83.9c-9 9 -21.2 14.1 -33.9 14.1h-204.1c-26.5 -0.1 -48 -21.6 -48 -48.1v-416c0 -26.5 21.5 -48 48 -48h288c26.5 0 48 21.5 48 48v332.1c0 12.7 -5.1 25 -14.1 34zM332.1 320h-76.1v76.1zM48 -16v416h160v-104c0 -13.3 10.7 -24 24 -24h104v-288
h-288zM80 32h224v128l-23.5 23.5c-4.7 4.7 -12.3 4.7 -17 0l-87.5 -87.5l-39.5 39.5c-4.7 4.7 -12.3 4.7 -17 0l-39.5 -39.5v-64zM128 272c-26.5 0 -48 -21.5 -48 -48s21.5 -48 48 -48s48 21.5 48 48s-21.5 48 -48 48z" />
    <glyph glyph-name="file" unicode="&#xf15b;" horiz-adv-x="384" 
d="M369.9 350.1l-83.9 83.9c-9 9 -21.2 14.1 -33.9 14.1h-204.1c-26.5 -0.1 -48 -21.6 -48 -48.1v-416c0 -26.5 21.5 -48 48 -48h288c26.5 0 48 21.5 48 48v332.1c0 12.7 -5.1 25 -14.1 34zM332.1 320h-76.1v76.1zM48 -16v416h160v-104c0 -13.3 10.7 -24 24 -24h104v-288
h-288z" />
    <glyph glyph-name="flask" unicode="&#xf0c3;" horiz-adv-x="448" 
d="M437.2 44.5l-117.2 188.5v167h20c6.6 0 12 5.4 12 12v24c0 6.6 -5.4 12 -12 12h-232c-6.6 0 -12 -5.4 -12 -12v-24c0 -6.6 5.4 -12 12 -12h20v-167l-117.2 -188.5c-29.3 -47.1 4.5 -108.5 60.1 -108.5h306.2c55.7 0 89.4 61.5 60.1 108.5zM377.1 -16h-306.2
c-18.1 0 -28.7 20.1 -19.3 35.2l117.2 188.5c4.7 7.6 7.2 16.4 7.2 25.3v167h96v-167c0 -9 2.5 -17.7 7.2 -25.3l117.2 -188.5c9.4 -15.1 -1.1 -35.2 -19.3 -35.2z" />
    <glyph glyph-name="folder-open" unicode="&#xf07c;" horiz-adv-x="576" 
d="M527.943 224h-47.943v48c0 26.51 -21.49 48 -48 48h-160l-64 64h-160c-26.51 0 -48 -21.49 -48 -48v-288c0 -26.51 21.49 -48 48 -48h400c17.1722 0.00015778 32.2203 8.9864 40.704 22.56l79.942 128c19.948 31.917 -3.038 73.44 -40.703 73.44zM54 336h134.118l64 -64
h173.882c3.31149 0 6 -2.68851 6 -6v-42h-280c-17.4418 -6.00871e-05 -32.6927 -9.27173 -41.098 -23.202l-62.902 -104.247v233.456c0 3.30763 2.68537 5.993 5.993 5.993c0.00237933 0 0.00462131 2.77838e-06 0.007 0zM448 48h-376l77.234 128h378.766z" />
    <glyph glyph-name="folder" unicode="&#xf07b;" 
d="M464 320h-192l-64 64h-160c-26.51 0 -48 -21.49 -48 -48v-288c0 -26.51 21.49 -48 48 -48h416c26.51 0 48 21.49 48 48v224c0 26.51 -21.49 48 -48 48zM458 48h-404c-3.314 0 -6 2.678 -6 5.992v276.016c0.000549581 3.30716 2.68571 5.99198 5.993 5.99198
c0.00237936 0 0.00462137 1.82976e-05 0.00700008 1.55191e-05h134.118l64 -64h205.882c3.31149 0 6 -2.68851 6 -6v-212c0 -3.31149 -2.68851 -6 -6 -6z" />
    <glyph glyph-name="gem" unicode="&#xf3a5;" horiz-adv-x="576" 
d="M464 448h-352c-4 0 -7.8 -2 -10 -5.4l-100 -147.2c-2.9 -4.4 -2.6 -10.2 0.7 -14.2l276 -340.8c4.8 -5.9 13.8 -5.9 18.6 0l276 340.8c3.3 4.1 3.6 9.8 0.7 14.2l-99.9 147.2c-2.3 3.4 -6 5.4 -10.1 5.4zM444.7 400l63.3 -96h-68.4l-51.7 96h56.8zM242.6 400h90.7
l51.7 -96h-194zM131.3 400h56.8l-51.7 -96h-68.4zM88.3 256h51.4l68.3 -160zM191.2 256h193.6l-96.8 -243.3zM368 96l68.2 160h51.4z" />
    <glyph glyph-name="genderless" unicode="&#xf22d;" horiz-adv-x="288" 
d="M144 288c52.9 0 96 -43.1 96 -96s-43.1 -96 -96 -96s-96 43.1 -96 96s43.1 96 96 96zM144 336c-79.5 0 -144 -64.5 -144 -144s64.5 -144 144 -144s144 64.5 144 144s-64.5 144 -144 144z" />
    <glyph glyph-name="globe-africa" unicode="&#xf57c;" horiz-adv-x="496" 
d="M248 440c-136.96 0 -248 -111.03 -248 -248s111.04 -248 248 -248c136.96 0 248 111.03 248 248c0 136.97 -111.04 248 -248 248zM248 -8c-110.28 0 -200 89.72 -200 200c0 110.28 89.72 200 200 200c10.92 0 21.55 -1.12 32 -2.81v-21.7
c0 -8.56 -6.94 -15.5 -15.5 -15.5h-24.21c-5.18 0 -10.02 -2.59 -12.89 -6.9l-8.08 -12.11c-2.14 -3.21 -5.4 -5.5 -9.14 -6.44l-14.45 -3.61c-6.73644 -1.68156 -11.7331 -7.77788 -11.7331 -15.032c0 -0.00313127 -0.00686504 -0.00482597 -0.00686318 -0.00795681v-4.4
c0 -8.56 6.94 -15.5 15.5 -15.5h90.09c4.11 0 8.05 -1.63 10.96 -4.54l6.92 -6.92c2.91 -2.91 6.85 -4.54 10.96 -4.54h10.09c8.56 0 15.5 -6.94 15.5 -15.5c0 -6.67 -4.27 -12.59 -10.6 -14.7l-47.31 -15.77c-3.9 -1.3 -8.15 -1 -11.83 0.84l-14.72 7.36
c-7.34036 3.66908 -15.6727 5.76701 -24.43 5.77h-0.89c-11.82 0 -23.32 -3.83 -32.78 -10.93l-27.58 -20.69c-13.3008 -9.95086 -21.87 -25.8067 -21.87 -43.68v-14.06c0 -14.49 5.76 -28.38 16 -38.63c9.88961 -9.88757 23.5547 -15.9992 38.63 -16h25.88
c8.56 0 15.5 -6.94 15.5 -15.5v-29.88c0 -12.25 2.85 -24.33 8.33 -35.29c4.7 -9.4 14.31 -15.34 24.82 -15.34c9.28 0 17.94 4.64 23.09 12.36l13.03 19.55c7.1827 10.7713 15.4849 20.4467 25 29.16c2.47 2.26 4.14 5.26 4.76 8.56l4.3 22.83
c0.44 2.33 1.41 4.53 2.83 6.43l18.74 24.98c2.01 2.68 3.1 5.95 3.1 9.3v11.34c0 8.56 -6.94 15.5 -15.5 15.5h-8.21c-5.18 0 -10.02 2.59 -12.89 6.9l-13.24 19.86c-5.67 8.5 -1.7 20.07 7.99 23.3l2.65 0.88c4.54 1.51 9.52 0.85 13.5 -1.81l18.21 -12.14
c2.4604 -1.63681 5.4133 -2.59092 8.58729 -2.59092c2.48253 0 4.86055 0.583418 6.94271 1.62092l15.39 7.7c5.25 2.62 8.57 7.99 8.57 13.86v6.93c0 8.56 6.94 15.5 15.5 15.5h18.44c3.82 -15.41 6.07 -31.43 6.07 -48c-0.02 -110.29 -89.74 -200.01 -200.02 -200.01z" />
    <glyph glyph-name="hdd" unicode="&#xf0a0;" horiz-adv-x="576" 
d="M567.403 212.358l-105.08 151.053c-8.67325 12.4679 -23.0791 20.589 -39.404 20.589h-269.838c-16.3249 0 -30.7308 -8.12114 -39.404 -20.589l-105.08 -151.053c-5.40195 -7.76513 -8.59699 -17.2446 -8.597 -27.412v-136.946c0 -26.51 21.49 -48 48 -48h480
c26.51 0 48 21.49 48 48v136.946c0 9.801 -3 19.366 -8.597 27.412zM153.081 336h269.838l77.913 -112h-425.664zM528 48h-480v128h480v-128zM496 112c0 -17.673 -14.327 -32 -32 -32s-32 14.327 -32 32s14.327 32 32 32s32 -14.327 32 -32zM400 112
c0 -17.673 -14.327 -32 -32 -32s-32 14.327 -32 32s14.327 32 32 32s32 -14.327 32 -32z" />
    <glyph glyph-name="headphones-alt" unicode="&#xf58f;" 
d="M192 160h-48c-35.35 0 -64 -28.7 -64 -64.12v-63.76c0 -35.41 28.65 -64.12 64 -64.12h48c17.67 0 32 14.36 32 32.06v127.88c0 17.71 -14.33 32.06 -32 32.06zM176 16.09h-32c-8.82 0 -16 7.19 -16 16.03v63.76c0 8.84 7.18 16.03 16 16.03h32v-95.82zM256 416
c-143.09 0 -251.43 -119.13 -256 -256v-112c0 -8.84 7.16 -16 16 -16h16c8.84 0 16 7.16 16 16v112c0 114.67 93.33 207.8 208 207.82c114.67 -0.02 208 -93.15 208 -207.82v-112c0 -8.84 7.16 -16 16 -16h16c8.84 0 16 7.16 16 16v112c-4.57 136.87 -112.91 256 -256 256z
M368 160h-48c-17.67 0 -32 -14.35 -32 -32.06v-127.88c0 -17.7 14.33 -32.06 32 -32.06h48c35.35 0 64 28.71 64 64.12v63.76c0 35.41 -28.65 64.12 -64 64.12zM384 32.12c0 -8.84 -7.18 -16.03 -16 -16.03h-32v95.82h32c8.82 0 16 -7.19 16 -16.03v-63.76z" />
    <glyph glyph-name="headphones" unicode="&#xf025;" 
d="M256 416c-141.48 0 -256 -114.497 -256 -256v-49.714c5.12593e-05 -9.0173 4.9582 -16.8647 12.319 -20.966l19.702 -10.977c0.887 -61.091 50.677 -110.343 111.979 -110.343h24c13.255 0 24 10.745 24 24v176c0 13.255 -10.745 24 -24 24h-24
c-40.744 0 -76.402 -21.758 -96 -54.287v22.287c0 114.691 93.309 208 208 208c114.691 0 208 -93.309 208 -208v-22.287c-19.598 32.529 -55.256 54.287 -96 54.287h-24c-13.255 0 -24 -10.745 -24 -24v-176c0 -13.255 10.745 -24 24 -24h24
c61.302 0 111.092 49.252 111.979 110.344l19.702 10.977c7.3608 4.10132 12.3189 11.9487 12.319 20.966v49.713c0 141.48 -114.497 256 -256 256zM144 144v-128c-35.29 0 -64 28.71 -64 64c0 35.29 28.71 64 64 64zM368 16v128c35.29 0 64 -28.71 64 -64
s-28.71 -64 -64 -64z" />
    <glyph glyph-name="heart-rate" unicode="&#xf5f8;" horiz-adv-x="640" 
d="M624 216h-144c-9.3 0 -17.76 -5.37 -21.72 -13.79l-35.78 -76.04l-79.28 303.89c-2.75 10.58 -12.31 17.94 -23.22 17.94c-0.19 0 -0.41 0 -0.62 -0.02c-11.12 -0.28 -20.62 -8.2 -22.88 -19.12l-75.84 -366.52l-37.53 136.03c-2.87 10.41 -12.35 17.62 -23.15 17.62
h-143.98c-8.84 0 -16 -7.16 -16 -16v-16c0 -8.84 7.16 -16 16 -16h125.72l59.16 -214.38c2.79293 -10.1439 12.0907 -17.6039 23.117 -17.6039l0.00297593 -0.00610975c0.25 0 0.53 0 0.78 0.02c11.09 0.36 20.47 8.27 22.72 19.12l75.19 363.44l70.09 -268.64
c2.53 -9.77 10.94 -16.91 21 -17.83c10.5 -1.14 19.62 4.53 23.94 13.67l57.5 122.22h128.78c8.84 0 16 7.16 16 16v16c0 8.84 -7.16 16 -16 16z" />
    <glyph glyph-name="heart" unicode="&#xf004;" 
d="M458.4 383.7c-57.8 48.6 -147.1 41.3 -202.4 -15c-55.3 56.3 -144.6 63.7 -202.4 15c-75.2 -63.3 -64.2 -166.5 -10.6 -221.2l175.4 -178.7c10 -10.2 23.4 -15.9 37.6 -15.9c14.3 0 27.6 5.6 37.6 15.8l175.4 178.7c53.5 54.7 64.7 157.9 -10.6 221.3zM434.8 196.2
l-175.4 -178.7c-2.4 -2.4 -4.4 -2.4 -6.8 0l-175.4 178.7c-36.5 37.2 -43.9 107.6 7.3 150.7c38.9 32.7 98.9 27.8 136.5 -10.5l35 -35.7l35 35.7c37.8 38.5 97.8 43.2 136.5 10.6c51.1 -43.1 43.5 -113.9 7.3 -150.8z" />
    <glyph glyph-name="history" unicode="&#xf1da;" 
d="M504 192.468c0.252 -136.64 -111.182 -248.372 -247.822 -248.468c-64.014 -0.045 -122.373 24.163 -166.394 63.942c-5.097 4.606 -5.3 12.543 -0.443 17.4l16.96 16.96c4.529 4.529 11.776 4.659 16.555 0.395c35.352 -31.54 81.992 -50.697 133.144 -50.697
c110.549 0 200 89.468 200 200c0 110.549 -89.468 200 -200 200c-55.52 0 -105.708 -22.574 -141.923 -59.043l49.091 -48.413c7.641 -7.535 2.305 -20.544 -8.426 -20.544h-128.33c-6.627 0 -12 5.373 -12 12v126.557c0 10.651 12.843 16.023 20.426 8.544l45.097 -44.474
c44.931 45.306 107.215 73.373 176.065 73.373c136.811 0 247.747 -110.781 248 -247.532zM336.942 102.295l14.116 19.409c3.898 5.36 2.713 12.865 -2.647 16.763l-68.411 49.755v143.778c0 6.627 -5.373 12 -12 12h-24c-6.627 0 -12 -5.373 -12 -12v-168.222
l88.179 -64.13c5.36 -3.897 12.865 -2.712 16.763 2.647z" />
    <glyph glyph-name="image" unicode="&#xf03e;" 
d="M464 384h-416c-26.51 0 -48 -21.49 -48 -48v-288c0 -26.51 21.49 -48 48 -48h416c26.51 0 48 21.49 48 48v288c0 26.51 -21.49 48 -48 48zM458 48h-404c-3.31149 0 -6 2.68851 -6 6v276c0 3.31149 2.68851 6 6 6h404c3.31149 0 6 -2.68851 6 -6v-276
c0 -3.31149 -2.68851 -6 -6 -6zM128 296c-22.091 0 -40 -17.909 -40 -40s17.909 -40 40 -40c22.091 0 40 17.909 40 40s-17.909 40 -40 40zM96 96h320v80l-87.515 87.515c-4.686 4.686 -12.284 4.686 -16.971 0l-119.514 -119.515l-39.515 39.515
c-4.686 4.686 -12.284 4.686 -16.971 0l-39.514 -39.515v-48z" />
    <glyph glyph-name="images" unicode="&#xf302;" horiz-adv-x="576" 
d="M480 32v-16c0 -26.51 -21.49 -48 -48 -48h-384c-26.51 0 -48 21.49 -48 48v256c0 26.51 21.49 48 48 48h16v-48h-10c-3.31149 0 -6 -2.68851 -6 -6v-244c0 -3.31149 2.68851 -6 6 -6h372c3.31149 0 6 2.68851 6 6v10h48zM522 368h-372c-3.31149 0 -6 -2.68851 -6 -6v-244
c0 -3.31149 2.68851 -6 6 -6h372c3.31149 0 6 2.68851 6 6v244c0 3.31149 -2.68851 6 -6 6zM528 416c26.51 0 48 -21.49 48 -48v-256c0 -26.51 -21.49 -48 -48 -48h-384c-26.51 0 -48 21.49 -48 48v256c0 26.51 21.49 48 48 48h384zM264 304c0 -22.091 -17.909 -40 -40 -40
s-40 17.909 -40 40s17.909 40 40 40s40 -17.909 40 -40zM192 208l39.515 39.515c4.686 4.686 12.284 4.686 16.971 0l39.514 -39.515l103.515 103.515c4.686 4.686 12.284 4.686 16.971 0l71.514 -71.515v-80h-288v48z" />
    <glyph glyph-name="inbox-in" unicode="&#xf310;" horiz-adv-x="576" 
d="M395.5 262.5l-99 -99c-4.7 -4.7 -12.3 -4.7 -17 0l-99 99c-7.6 7.6 -2.2 20.5 8.5 20.5h67v153c0 6.6 5.4 12 12 12h40c6.6 0 12 -5.4 12 -12v-153h67c10.7 0 16.1 -12.9 8.5 -20.5zM528 96h-120l-32 -64h-176l-32 64h-120v-112h480v112zM576 93.8v-109.8
c0 -26.5 -21.5 -48 -48 -48h-480c-26.5 0 -48 21.5 -48 48v109.8c0 11.8 4.3 23.1 12.1 31.9l101.6 114.2c2.3 2.6 4.9 4.9 7.7 7c2.4 1.7 5.6 1.4 7.7 -0.7l24.8 -24.9c2.2 -2.2 2.3 -5.9 0.2 -8.2l-61.4 -69.1h105l32 -64h116.7l32 64h105l-61.4 69.1
c-2.1 2.4 -2 5.9 0.2 8.2l24.6 25c2 2.1 5.3 2.4 7.7 0.7c2.9 -2.1 5.5 -4.4 7.9 -7.1l101.6 -114.2c7.7 -8.8 12 -20.2 12 -31.9z" />
    <glyph glyph-name="inbox-out" unicode="&#xf311;" horiz-adv-x="576" 
d="M180.5 345.5l99 99c4.7 4.7 12.3 4.7 17 0l99 -99c7.6 -7.6 2.2 -20.5 -8.5 -20.5h-67v-153c0 -6.6 -5.4 -12 -12 -12h-40c-6.6 0 -12 5.4 -12 12v153h-67c-10.7 0 -16.1 12.9 -8.5 20.5zM576 93.8v-109.8c0 -26.5 -21.5 -48 -48 -48h-480c-26.5 0 -48 21.5 -48 48v109.8
c0 11.8 4.3 23.1 12.1 31.9l101.6 114.2c9.1 10.2 22.2 16.1 35.9 16.1h52.4c3.3 0 6 -2.7 6 -6v-36c0 -3.3 -2.7 -6 -6 -6h-52.4l-56.9 -64h105l32 -64h116.7l32 64h105l-56.9 64h-52.5c-3.3 0 -6 2.7 -6 6v36c0 3.3 2.7 6 6 6h52.4c13.7 0 26.8 -5.9 35.9 -16.1
l101.6 -114.2c7.8 -8.8 12.1 -20.2 12.1 -31.9zM528 96h-120l-32 -64h-176l-32 64h-120v-112h480v112z" />
    <glyph glyph-name="inbox" unicode="&#xf01c;" horiz-adv-x="576" 
d="M567.403 212.358l-105.08 151.053c-8.67325 12.4679 -23.0791 20.589 -39.404 20.589h-269.838c-16.3249 0 -30.7308 -8.12114 -39.404 -20.589l-105.08 -151.053c-5.40195 -7.76513 -8.59699 -17.2446 -8.597 -27.412v-136.946c0 -26.51 21.49 -48 48 -48h480
c26.51 0 48 21.49 48 48v136.946c0 9.801 -3 19.366 -8.597 27.412zM153.081 336h269.838l77.913 -112h-122.498l-32 -64h-116.668l-32 64h-122.498zM528 48h-480v128h120l32 -64h176l32 64h120v-128z" />
    <glyph glyph-name="info-circle" unicode="&#xf05a;" 
d="M256 440c-136.957 0 -248 -111.083 -248 -248c0 -136.997 111.043 -248 248 -248s248 111.003 248 248c0 136.917 -111.043 248 -248 248zM256 -8c-110.532 0 -200 89.431 -200 200c0 110.495 89.472 200 200 200c110.491 0 200 -89.471 200 -200
c0 -110.53 -89.431 -200 -200 -200zM256 330c23.196 0 42 -18.804 42 -42s-18.804 -42 -42 -42s-42 18.804 -42 42s18.804 42 42 42zM312 76c0 -6.627 -5.373 -12 -12 -12h-88c-6.627 0 -12 5.373 -12 12v24c0 6.627 5.373 12 12 12h12v64h-12c-6.627 0 -12 5.373 -12 12v24
c0 6.627 5.373 12 12 12h64c6.627 0 12 -5.373 12 -12v-100h12c6.627 0 12 -5.373 12 -12v-24z" />
    <glyph glyph-name="info-square" unicode="&#xf30f;" horiz-adv-x="448" 
d="M448 368v-352c0 -26.51 -21.49 -48 -48 -48h-352c-26.51 0 -48 21.49 -48 48v352c0 26.51 21.49 48 48 48h352c26.51 0 48 -21.49 48 -48zM400 22v340c0 3.31149 -2.68851 6 -6 6h-340c-3.31149 0 -6 -2.68851 -6 -6v-340c0 -3.31149 2.68851 -6 6 -6h340
c3.31149 0 6 2.68851 6 6zM224 330c23.196 0 42 -18.804 42 -42s-18.804 -42 -42 -42s-42 18.804 -42 42s18.804 42 42 42zM280 76c0 -6.627 -5.373 -12 -12 -12h-88c-6.627 0 -12 5.373 -12 12v24c0 6.627 5.373 12 12 12h12v64h-12c-6.627 0 -12 5.373 -12 12v24
c0 6.627 5.373 12 12 12h64c6.627 0 12 -5.373 12 -12v-100h12c6.627 0 12 -5.373 12 -12v-24z" />
    <glyph glyph-name="info" unicode="&#xf129;" horiz-adv-x="256" 
d="M224 95.411v128.589c0 16.475 -6.258 31.517 -16.521 42.872c18.426 19.988 28.521 45.782 28.521 73.128c0 59.687 -48.303 108 -108 108c-59.687 0 -108 -48.303 -108 -108c0 -20.882 5.886 -40.859 16.874 -58.037c-21.767 -10.227 -36.874 -32.364 -36.874 -57.963
v-39.314c0 -23.641 12.884 -44.329 32 -55.411v-33.864c-19.116 -11.082 -32 -31.77 -32 -55.411v-40c0 -35.29 28.71 -64 64 -64h128c35.29 0 64 28.71 64 64v40c0 23.641 -12.884 44.329 -32 55.411zM128 400c33.137 0 60 -26.863 60 -60s-26.863 -60 -60 -60
s-60 26.863 -60 60s26.863 60 60 60zM208 0c0 -8.836 -7.164 -16 -16 -16h-128c-8.836 0 -16 7.164 -16 16v40c0 8.836 7.164 16 16 16h16v112.686h-16c-8.836 0 -16 7.164 -16 16v39.314c0 8.836 7.164 16 16 16h96c8.836 0 16 -7.164 16 -16v-168h16
c8.836 0 16 -7.164 16 -16v-40z" />
    <glyph glyph-name="key" unicode="&#xf084;" 
d="M320 400c79.529 0 144 -64.471 144 -144s-64.471 -144 -144 -144c-18.968 0 -37.076 3.675 -53.66 10.339l-42.34 -42.339h-32v-48h-48v-48h-96v96l134.177 134.177c-3.99932 13.2089 -6.14982 27.2177 -6.14982 41.7249
c2.84217e-14 0.0359112 -0.0272073 0.0622419 -0.0271809 0.098147c0 79.529 64.471 144 144 144zM320 448c-106.035 0 -192 -85.954 -192 -192c0 -8.832 0.602 -17.623 1.799 -26.318l-122.77 -122.77c-4.34377 -4.34474 -7.02867 -10.3481 -7.029 -16.971v-129.941
c0 -13.255 10.745 -24 24 -24h144c13.255 0 24 10.745 24 24v24h24c13.255 0 24 10.745 24 24v20l40.049 40.167c13.057 -2.771 26.412 -4.167 39.951 -4.167c106.035 0 192 85.954 192 192c0 106.035 -85.954 192 -192 192zM320 304c0 -26.51 21.49 -48 48 -48
s48 21.49 48 48s-21.49 48 -48 48s-48 -21.49 -48 -48z" />
    <glyph glyph-name="layer-group" unicode="&#xf5fd;" 
d="M512 191.99c0 12.86 -7.53 24.42 -19.12 29.44l-79.69 34.58l79.66 34.57c11.62 5.03 19.16 16.59 19.16 29.44s-7.53 24.41 -19.12 29.42l-218.23 94.67c-11.84 5.17 -25.44 5.19 -37.28 0.02l-218.22 -94.68c-11.63 -5.03 -19.16 -16.59 -19.16 -29.44
s7.53 -24.41 19.12 -29.42l79.7 -34.58l-79.67 -34.57c-11.62 -5.02 -19.15 -16.59 -19.15 -29.45c0 -12.84 7.53 -24.41 19.12 -29.42l79.69 -34.57l-79.65 -34.56c-11.63 -5.03 -19.16 -16.59 -19.16 -29.45c0 -12.84 7.53 -24.41 19.12 -29.42l218.28 -94.69
c5.68485 -2.48069 11.9956 -3.8796 18.59 -3.88c6.34 0.02 12.69 1.3 18.59 3.86l218.25 94.69c11.62 5.03 19.16 16.59 19.16 29.44c0 12.86 -7.53 24.42 -19.12 29.44l-79.68 34.57l79.65 34.56c11.63 5.03 19.16 16.59 19.16 29.43zM255.47 400.11l0.03 -0.02h-0.06z
M256 399.88l184.16 -79.89l-183.63 -80.09l-184.62 80.11zM440.19 63.96l-183.66 -80.07l-184.62 80.11l87.21 37.84l78.29 -33.96c5.68485 -2.48069 11.9956 -3.8796 18.59 -3.88c6.34 0.02 12.69 1.3 18.59 3.86l78.29 33.97zM256.53 111.9l-184.62 80.11l87.22 37.84
l78.28 -33.96c5.68485 -2.48069 11.9956 -3.8796 18.59 -3.88c6.34 0.02 12.69 1.3 18.59 3.86l78.29 33.97l87.31 -37.88z" />
    <glyph glyph-name="lightbulb" unicode="&#xf0eb;" horiz-adv-x="384" 
d="M272 20v-28c0 -10.449 -6.68 -19.334 -16 -22.629v-9.371c0 -13.255 -10.745 -24 -24 -24h-80c-13.255 0 -24 10.745 -24 24v9.371c-9.32 3.295 -16 12.18 -16 22.629v28c0 6.627 5.373 12 12 12h136c6.627 0 12 -5.373 12 -12zM128 272c0 35.29 28.71 64 64 64
c8.837 0 16 7.164 16 16s-7.163 16 -16 16c-52.935 0 -96 -43.065 -96 -96c0 -8.836 7.164 -16 16 -16s16 7.164 16 16zM192 400c70.734 0 128 -57.254 128 -128c0 -77.602 -37.383 -60.477 -80.98 -160h-94.04c-43.662 99.67 -80.98 82.131 -80.98 160
c0 70.735 57.254 128 128 128zM192 448c-97.195 0 -176 -78.803 -176 -176c0 -101.731 51.697 -91.541 90.516 -192.674c3.55 -9.249 12.47 -15.326 22.376 -15.326h126.215c9.906 0 18.826 6.078 22.376 15.326c38.82 101.133 90.517 90.943 90.517 192.674
c0 97.197 -78.805 176 -176 176z" />
    <glyph glyph-name="link" unicode="&#xf0c1;" 
d="M314.222 250.22c51.091 -51.091 54.377 -132.287 9.75 -187.16c-6.242 -7.73 -2.784 -3.865 -84.94 -86.02c-54.696 -54.696 -143.266 -54.745 -197.99 0c-54.711 54.69 -54.734 143.255 0 197.99c32.773 32.773 51.835 51.899 63.409 63.457
c7.463 7.452 20.331 2.354 20.486 -8.192c0.190083 -13.0203 1.8303 -25.6512 4.746 -37.828c0.966 -4.029 -0.272 -8.269 -3.202 -11.198l-45.849 -45.839c-32.755 -32.775 -32.887 -85.892 0 -118.8c32.775 -32.755 85.892 -32.887 118.8 0l75.19 75.2
c32.718 32.725 32.777 86.013 0 118.79c-6.62172 6.63373 -14.2825 12.1045 -22.814 16.229c-4.623 2.233 -7.182 7.25 -6.561 12.346c1.356 11.122 6.296 21.885 14.815 30.405l4.375 4.375c3.625 3.626 9.177 4.594 13.76 2.294
c12.999 -6.524 25.187 -15.211 36.025 -26.049zM470.958 406.96c-54.724 54.745 -143.294 54.696 -197.99 0c-82.156 -82.156 -78.698 -78.29 -84.94 -86.02c-44.627 -54.873 -41.341 -136.069 9.75 -187.16c10.838 -10.838 23.026 -19.525 36.025 -26.049
c4.582 -2.3 10.134 -1.331 13.76 2.294l4.375 4.375c8.52 8.519 13.459 19.283 14.815 30.405c0.621 5.096 -1.938 10.113 -6.561 12.346c-8.53165 4.12425 -16.1925 9.59505 -22.814 16.229c-32.777 32.777 -32.718 86.065 0 118.79l75.19 75.2
c32.908 32.887 86.025 32.755 118.8 0c32.887 -32.908 32.755 -86.025 0 -118.8l-45.848 -45.84c-2.93 -2.929 -4.168 -7.169 -3.202 -11.198c2.9157 -12.1768 4.55592 -24.8077 4.746 -37.828c0.155 -10.546 13.023 -15.644 20.486 -8.192
c11.574 11.558 30.636 30.684 63.409 63.457c54.733 54.735 54.71 143.3 -0.001 197.991z" />
    <glyph glyph-name="list-alt" unicode="&#xf022;" 
d="M464 416h-416c-26.51 0 -48 -21.49 -48 -48v-352c0 -26.51 21.49 -48 48 -48h416c26.51 0 48 21.49 48 48v352c0 26.51 -21.49 48 -48 48zM458 16h-404c-3.31149 0 -6 2.68851 -6 6v340c0 3.31149 2.68851 6 6 6h404c3.31149 0 6 -2.68851 6 -6v-340
c0 -3.31149 -2.68851 -6 -6 -6zM416 108v-24c0 -6.627 -5.373 -12 -12 -12h-200c-6.627 0 -12 5.373 -12 12v24c0 6.627 5.373 12 12 12h200c6.627 0 12 -5.373 12 -12zM416 204v-24c0 -6.627 -5.373 -12 -12 -12h-200c-6.627 0 -12 5.373 -12 12v24c0 6.627 5.373 12 12 12
h200c6.627 0 12 -5.373 12 -12zM416 300v-24c0 -6.627 -5.373 -12 -12 -12h-200c-6.627 0 -12 5.373 -12 12v24c0 6.627 5.373 12 12 12h200c6.627 0 12 -5.373 12 -12zM164 288c0 -19.882 -16.118 -36 -36 -36s-36 16.118 -36 36s16.118 36 36 36s36 -16.118 36 -36z
M164 192c0 -19.882 -16.118 -36 -36 -36s-36 16.118 -36 36s16.118 36 36 36s36 -16.118 36 -36zM164 96c0 -19.882 -16.118 -36 -36 -36s-36 16.118 -36 36s16.118 36 36 36s36 -16.118 36 -36z" />
    <glyph glyph-name="list-ol" unicode="&#xf0cb;" 
d="M500 324h-360c-6.627 0 -12 5.373 -12 12v32c0 6.627 5.373 12 12 12h360c6.627 0 12 -5.373 12 -12v-32c0 -6.627 -5.373 -12 -12 -12zM512 176v32c0 6.627 -5.373 12 -12 12h-360c-6.627 0 -12 -5.373 -12 -12v-32c0 -6.627 5.373 -12 12 -12h360
c6.627 0 12 5.373 12 12zM512 16v32c0 6.627 -5.373 12 -12 12h-360c-6.627 0 -12 -5.373 -12 -12v-32c0 -6.627 5.373 -12 12 -12h360c6.627 0 12 5.373 12 12zM3.263 299.572c0 -7.477 3.917 -11.572 11.573 -11.572h67.293c7.655 0 11.572 4.095 11.572 11.572v8.901
c0 7.477 -3.917 11.572 -11.572 11.572h-15.489v84.383c0 7.656 -4.093 11.572 -11.749 11.572h-12.106c-6.053 0 -9.97 -1.602 -14.42 -5.697l-21.719 -19.938c-5.518 -5.163 -5.875 -11.038 -0.534 -16.379l5.518 -6.231c5.162 -5.519 11.216 -5.341 15.666 -1.068
c1.069 1.068 2.848 3.738 2.848 3.738h0.356s-0.534 -5.34 -0.534 -10.503v-39.878h-15.13c-7.656 0 -11.573 -4.094 -11.573 -11.572v-8.9zM2.211 139.382c0 -7.354 5.078 -11.382 12.083 -11.382h67.939c7.529 0 11.557 4.028 11.557 11.382v8.755
c0 7.355 -4.028 11.382 -11.557 11.382h-39.049c1.926 10.507 48.679 18.561 48.679 56.909c0 29.067 -25.039 39.573 -44.476 39.573c-21.362 0 -33.795 -9.981 -40.449 -18.736c-4.378 -5.604 -2.976 -10.857 2.803 -15.409l8.579 -6.829
c5.604 -4.553 11.032 -2.452 16.111 2.451c2.976 2.801 6.303 3.852 9.455 3.852c3.326 0 9.28 -1.576 9.28 -8.755c0 -12.782 -50.955 -21.888 -50.955 -69.165v-4.028zM8.28 -22.545c7.704 -4.727 19.26 -9.455 35.896 -9.455c34.145 0 48.503 22.763 48.503 44.126
c0 14.358 -9.105 29.767 -28.716 34.845l17.509 20.137c3.678 4.377 5.079 8.405 5.079 14.183v3.327c0 7.355 -3.853 11.382 -11.382 11.382h-58.484c-7.53 0 -11.383 -3.852 -11.383 -11.382v-8.755c0 -7.354 3.853 -11.382 11.383 -11.382h12.957
c8.405 0 12.608 1.051 12.608 1.051v-0.35s-5.428 -5.078 -12.257 -13.483l-5.604 -7.004c-4.028 -5.078 -5.253 -10.156 -2.801 -14.884l1.05 -1.926c2.978 -5.779 6.304 -7.88 12.258 -7.88h4.728c10.33 0 15.934 -2.452 15.934 -9.106
c0 -4.728 -4.203 -8.23 -14.358 -8.23c-4.729 0 -9.457 1.051 -14.359 3.152c-6.479 3.852 -11.732 3.502 -15.584 -3.152l-5.603 -9.28c-3.678 -6.128 -3.153 -11.731 2.626 -15.934z" />
    <glyph glyph-name="list-ul" unicode="&#xf0ca;" 
d="M96 352c0 -26.51 -21.49 -48 -48 -48s-48 21.49 -48 48s21.49 48 48 48c26.51 0 48 -21.49 48 -48zM48 240c-26.51 0 -48 -21.49 -48 -48s21.49 -48 48 -48c26.51 0 48 21.49 48 48s-21.49 48 -48 48zM48 80c-26.51 0 -48 -21.49 -48 -48s21.49 -48 48 -48
c26.51 0 48 21.49 48 48c0 26.51 -21.49 48 -48 48zM512 336v32c0 6.627 -5.373 12 -12 12h-360c-6.627 0 -12 -5.373 -12 -12v-32c0 -6.627 5.373 -12 12 -12h360c6.627 0 12 5.373 12 12zM512 176v32c0 6.627 -5.373 12 -12 12h-360c-6.627 0 -12 -5.373 -12 -12v-32
c0 -6.627 5.373 -12 12 -12h360c6.627 0 12 5.373 12 12zM512 16v32c0 6.627 -5.373 12 -12 12h-360c-6.627 0 -12 -5.373 -12 -12v-32c0 -6.627 5.373 -12 12 -12h360c6.627 0 12 5.373 12 12z" />
    <glyph glyph-name="list" unicode="&#xf03a;" 
d="M500 324h-360c-6.627 0 -12 5.373 -12 12v32c0 6.627 5.373 12 12 12h360c6.627 0 12 -5.373 12 -12v-32c0 -6.627 -5.373 -12 -12 -12zM512 176v32c0 6.627 -5.373 12 -12 12h-360c-6.627 0 -12 -5.373 -12 -12v-32c0 -6.627 5.373 -12 12 -12h360
c6.627 0 12 5.373 12 12zM512 16v32c0 6.627 -5.373 12 -12 12h-360c-6.627 0 -12 -5.373 -12 -12v-32c0 -6.627 5.373 -12 12 -12h360c6.627 0 12 5.373 12 12zM92 320v64c0 6.627 -5.373 12 -12 12h-64c-6.627 0 -12 -5.373 -12 -12v-64c0 -6.627 5.373 -12 12 -12h64
c6.627 0 12 5.373 12 12zM92 160v64c0 6.627 -5.373 12 -12 12h-64c-6.627 0 -12 -5.373 -12 -12v-64c0 -6.627 5.373 -12 12 -12h64c6.627 0 12 5.373 12 12zM92 0v64c0 6.627 -5.373 12 -12 12h-64c-6.627 0 -12 -5.373 -12 -12v-64c0 -6.627 5.373 -12 12 -12h64
c6.627 0 12 5.373 12 12z" />
    <glyph glyph-name="lock-open" unicode="&#xf3c1;" horiz-adv-x="576" 
d="M432.3 448c-79.5 0.2 -144.3 -64.5 -144.3 -144v-48h-240c-26.5 0 -48 -21.5 -48 -48v-224c0 -26.5 21.5 -48 48 -48h352c26.5 0 48 21.5 48 48v224c0 26.5 -21.5 48 -48 48h-64v46.8c0 52.8 42.1 96.7 95 97.2c53.4 0.6 97 -42.7 97 -96v-56c0 -13.3 10.7 -24 24 -24
s24 10.7 24 24v54.6c0 79.6 -64 145.2 -143.7 145.4zM400 208v-224h-352v224h352z" />
    <glyph glyph-name="lock" unicode="&#xf023;" horiz-adv-x="448" 
d="M400 256h-32v46.6c0 79.6 -64 145.2 -143.6 145.4s-144.4 -64.5 -144.4 -144v-48h-32c-26.5 0 -48 -21.5 -48 -48v-224c0 -26.5 21.5 -48 48 -48h352c26.5 0 48 21.5 48 48v224c0 26.5 -21.5 48 -48 48zM128 304c0 52.9 43.1 96 96 96c52.9 0 96 -43.1 96 -96v-48h-192
v48zM400 -16h-352v224h352v-224z" />
    <glyph glyph-name="magic" unicode="&#xf0d0;" 
d="M497.94 371.72l-62.22 62.22c-9.38 9.37 -21.66 14.06 -33.94 14.06c-12.29 0 -24.57 -4.69 -33.94 -14.06l-353.78 -353.78c-18.75 -18.75 -18.75 -49.14 0 -67.88l62.22 -62.22c9.37 -9.37 21.66 -14.06 33.94 -14.06s24.57 4.69 33.94 14.06l353.77 353.78
c18.76 18.74 18.76 49.13 0.01 67.88zM110.23 -16l-62.23 62.22l223.9 223.93l62.24 -62.24zM368.08 241.86l-62.24 62.24l95.89 95.9h0.05l62.22 -62.22zM432 160l-26.66 -53.33l-53.34 -26.67l53.34 -26.67l26.66 -53.33l26.66 53.33l53.34 26.67l-53.34 26.67zM224 352
l16 32l32 16l-32 16l-16 32l-16 -32l-32 -16l32 -16zM80 288l26.66 53.33l53.34 26.67l-53.34 26.67l-26.66 53.33l-26.66 -53.33l-53.34 -26.67l53.34 -26.67z" />
    <glyph glyph-name="map-pin" unicode="&#xf276;" horiz-adv-x="288" 
d="M144 448c-79.53 0 -144 -64.47 -144 -144c0 -71.31 51.96 -130.1 120 -141.58v-197.64l16.51 -24.77c3.56 -5.34 11.41 -5.34 14.98 0l16.51 24.77v197.64c68.04 11.48 120 70.27 120 141.58c0 79.53 -64.47 144 -144 144zM144 208c-52.94 0 -96 43.07 -96 96
c0 52.94 43.06 96 96 96s96 -43.06 96 -96c0 -52.93 -43.06 -96 -96 -96zM144 368c-35.28 0 -64 -28.7 -64 -64c0 -8.84 7.16 -16 16 -16s16 7.16 16 16c0 17.64 14.34 32 32 32c8.84 0 16 7.16 16 16s-7.16 16 -16 16z" />
    <glyph glyph-name="marker" unicode="&#xf5a1;" 
d="M485.48 421.49c-17.67 17.67 -40.84 26.51 -64.01 26.51s-46.33 -8.84 -64.01 -26.51l-21.76 -21.76l-36.55 36.55c-15.62 15.62 -40.95 15.62 -56.56 0l-118.79 -118.78c-6.25 -6.25 -6.25 -16.38 0 -22.63l11.31 -11.31c6.25 -6.25 16.38 -6.25 22.63 0l113.13 113.13
l30.9 -30.9l-207.82 -207.81c-51.1045 -51.1054 -85.3608 -119.409 -93.78 -195.09l-0.03 -0.23c-1.59 -14.38 9.74 -26.66 23.81 -26.66c5.73 0 111.06 6.99 198.03 93.95l263.51 263.51c35.35 35.36 35.35 92.67 -0.01 128.03zM188.03 63.89
c-37.02 -37.02 -83.99 -62.88 -134.74 -74.6c11.72 50.74 37.59 97.73 74.6 134.74l73.07 73.07l60.14 -60.14zM451.55 327.41l-156.51 -156.51l-60.14 60.14l156.51 156.5c8.03 8.04 18.71 12.46 30.06 12.46c11.36 0 22.04 -4.42 30.07 -12.46
c8.04 -8.03 12.46 -18.71 12.46 -30.06c0 -11.36 -4.42 -22.04 -12.45 -30.07z" />
    <glyph glyph-name="microphone" unicode="&#xf130;" horiz-adv-x="352" 
d="M336 256h-16c-8.84 0 -16 -7.16 -16 -16v-48c0 -74.8 -64.49 -134.82 -140.79 -127.38c-66.5 6.49 -115.21 66.27 -115.21 133.08v42.3c0 8.84 -7.16 16 -16 16h-16c-8.84 0 -16 -7.16 -16 -16v-40.16c0 -89.64 63.97 -169.55 152 -181.69v-34.15h-56
c-8.84 0 -16 -7.16 -16 -16v-16c0 -8.84 7.16 -16 16 -16h160c8.84 0 16 7.16 16 16v16c0 8.84 -7.16 16 -16 16h-56v33.77c85.71 11.76 152 85.33 152 174.23v48c0 8.84 -7.16 16 -16 16zM176 96c53.02 0 96 42.98 96 96v160c0 53.02 -42.98 96 -96 96s-96 -42.98 -96 -96
v-160c0 -53.02 42.98 -96 96 -96zM128 352c0 26.47 21.53 48 48 48s48 -21.53 48 -48v-160c0 -26.47 -21.53 -48 -48 -48s-48 21.53 -48 48v160z" />
    <glyph glyph-name="mobile-android" unicode="&#xf3ce;" horiz-adv-x="320" 
d="M272 448h-224c-26.5 0 -48 -21.5 -48 -48v-416c0 -26.5 21.5 -48 48 -48h224c26.5 0 48 21.5 48 48v416c0 26.5 -21.5 48 -48 48zM266 -16h-212c-3.3 0 -6 2.7 -6 6v404c0 3.3 2.7 6 6 6h212c3.3 0 6 -2.7 6 -6v-404c0 -3.3 -2.7 -6 -6 -6zM196 16h-72
c-6.6 0 -12 5.4 -12 12v8c0 6.6 5.4 12 12 12h72c6.6 0 12 -5.4 12 -12v-8c0 -6.6 -5.4 -12 -12 -12z" />
    <glyph glyph-name="mobile" unicode="&#xf10b;" horiz-adv-x="320" 
d="M192 32c0 -17.7 -14.3 -32 -32 -32s-32 14.3 -32 32c0 17.7 14.3 32 32 32s32 -14.3 32 -32zM320 400v-416c0 -26.5 -21.5 -48 -48 -48h-224c-26.5 0 -48 21.5 -48 48v416c0 26.5 21.5 48 48 48h224c26.5 0 48 -21.5 48 -48zM272 -10v404c0 3.3 -2.7 6 -6 6h-212
c-3.3 0 -6 -2.7 -6 -6v-404c0 -3.3 2.7 -6 6 -6h212c3.3 0 6 2.7 6 6z" />
    <glyph glyph-name="paper-plane" unicode="&#xf1d8;" 
d="M440 441.5l-416 -239.9c-34.4 -19.9 -31.1 -70.8 5.7 -85.9l114.3 -47.3v-84.4c0 -46.4 59.2 -65.5 86.6 -28.6l43.8 59.1l111.9 -46.2c5.9 -2.4 12.1 -3.6 18.3 -3.6c8.2 0 16.3 2.1 23.6 6.2c12.8 7.2 21.6 20 23.9 34.5l59.4 387.2c6.1 40.1 -36.9 68.8 -71.5 48.9z
M192 -16v64.6l36.6 -15.1zM404.6 12.7l-153.8 63.5l140.2 202.3c10.7 15.5 -9.5 33.5 -23.7 21.2l-211.5 -184.3l-107.8 44.6l416 240z" />
    <glyph glyph-name="paperclip" unicode="&#xf0c6;" 
d="M67.508 -20.467c-58.005 58.013 -58.016 151.92 0 209.943l225.011 225.04c44.643 44.645 117.279 44.645 161.92 0c44.743 -44.749 44.753 -117.186 0 -161.944l-189.465 -189.49c-31.41 -31.413 -82.518 -31.412 -113.926 -0.001
c-31.479 31.482 -31.49 82.453 0 113.944l160.462 160.484c4.687 4.687 12.286 4.687 16.972 0l16.967 -16.971c4.685 -4.686 4.685 -12.283 0 -16.969l-160.466 -160.486c-12.724 -12.724 -12.73 -33.328 0 -46.058c12.696 -12.697 33.356 -12.699 46.054 0.001
l189.465 189.489c25.987 25.989 25.994 68.06 0.001 94.056c-25.931 25.934 -68.119 25.932 -94.049 0l-225.01 -225.039c-39.249 -39.252 -39.258 -102.795 -0.001 -142.057c39.285 -39.29 102.885 -39.287 142.162 0.028c65.7728 65.8361 130.095 130.196 195.892 196.007
c4.686 4.687 12.282 4.684 16.969 -0.004l16.967 -16.971c4.685 -4.686 4.689 -12.279 0.004 -16.965c-65.7935 -65.808 -130.112 -130.164 -195.881 -195.996c-58.034 -58.092 -152.004 -58.093 -210.048 -0.041z" />
    <glyph glyph-name="pen-alt" unicode="&#xf305;" 
d="M493.25 391.74l-37.51 37.51c-12.49 12.5 -28.87 18.75 -45.25 18.75s-32.76 -6.25 -45.26 -18.74l-67.87 -67.88l-39.59 39.59c-15.62 15.62 -40.95 15.62 -56.56 0l-118.79 -118.78c-6.25 -6.25 -6.25 -16.38 0 -22.62l11.31 -11.31c6.25 -6.25 16.38 -6.25 22.62 0
l113.14 113.12l33.94 -33.94l-7.42 -7.42l-162.06 -162.05c-51.1045 -51.1054 -85.3608 -119.409 -93.78 -195.09l-0.03 -0.23c-1.59 -14.37 9.74 -26.65 23.81 -26.65c0.89 0 1.78 0.05 2.69 0.15c75.7794 8.37233 144.175 42.6444 195.34 93.8l162.04 162.05l34.74 34.74
l74.49 74.49c25 25 25 65.52 0 90.51zM188.03 63.89c-37.02 -37.02 -83.99 -62.88 -134.74 -74.6c11.72 50.74 37.59 97.73 74.6 134.74l162.05 162.05l7.42 7.42l60.14 -60.14l-7.42 -7.42zM459.31 335.18l-67.88 -67.88l-48.82 48.83l-11.31 11.31l67.87 67.87
c4.08 4.08 8.84 4.69 11.31 4.69c2.47 0 7.24 -0.61 11.31 -4.69l37.51 -37.51c4.08 -4.08 4.69 -8.84 4.69 -11.31s-0.6 -7.24 -4.68 -11.31z" />
    <glyph glyph-name="pen-square" unicode="&#xf14b;" horiz-adv-x="448" 
d="M246.6 270.1l55.5 -55.5c2.3 -2.3 2.3 -6.1 0 -8.5l-135.7 -135.7l-57.1 -6.3c-7.6 -0.8 -14.1 5.6 -13.3 13.3l6.3 57.1l135.7 135.7c2.4 2.2 6.2 2.2 8.6 -0.1zM345 282.9l-30.1 30.1c-9.4 9.4 -24.6 9.4 -33.9 0l-23.1 -23.1c-2.3 -2.3 -2.3 -6.1 0 -8.5l55.5 -55.5
c2.3 -2.3 6.1 -2.3 8.5 0l23.1 23.1c9.3 9.3 9.3 24.5 0 33.9zM448 368v-352c0 -26.5 -21.5 -48 -48 -48h-352c-26.5 0 -48 21.5 -48 48v352c0 26.5 21.5 48 48 48h352c26.5 0 48 -21.5 48 -48zM400 22v340c0 3.3 -2.7 6 -6 6h-340c-3.3 0 -6 -2.7 -6 -6v-340
c0 -3.3 2.7 -6 6 -6h340c3.3 0 6 2.7 6 6z" />
    <glyph glyph-name="pen" unicode="&#xf304;" 
d="M493.26 391.74l-37.51 37.51c-12.5 12.5 -28.88 18.75 -45.26 18.75s-32.76 -6.25 -45.25 -18.74l-74.49 -74.49l-34.75 -34.75l-243.15 -243.14l-12.7 -114.22c-1.6 -14.38 9.73 -26.66 23.8 -26.66c0.89 0 1.79 0.05 2.69 0.15l114.14 12.61l243.24 243.24l34.74 34.74
l74.49 74.49c25 25 25 65.52 0.01 90.51zM118.75 -5.39l-67.58 -7.46l7.53 67.69l231.24 231.24l31.02 31.02l60.14 -60.14l-31.02 -31.02zM459.31 335.18l-44.28 -44.28l-60.13 60.14l44.28 44.28c4.08 4.08 8.84 4.69 11.31 4.69s7.24 -0.61 11.31 -4.69l37.51 -37.51
c6.24 -6.25 6.24 -16.4 1.13687e-13 -22.63z" />
    <glyph glyph-name="pencil" unicode="&#xf040;" 
d="M491.609 374.375l-53.861 53.839c-26.378 26.379 -69.076 26.383 -95.46 0.001l-317.378 -315.304l-24.581 -148.996c-2.675 -16.215 11.368 -30.261 27.587 -27.587l148.995 24.582l315.326 317.378c26.33 26.331 26.581 68.879 -0.628 96.087zM120.644 146
l170.259 169.155l88.251 -88.251l-169.154 -170.259v41.355h-48v48h-41.356zM82.132 -10.132l-28.263 28.263l12.14 73.587l18.4 18.282h41.591v-48h48v-41.59l-18.282 -18.401zM461.117 309.401l-0.051 -0.051l-0.051 -0.051l-48.03 -48.344l-88.03 88.03l48.344 48.03
l0.05 0.05l0.05 0.05c9.147 9.146 23.978 9.259 33.236 0.001l53.854 -53.854c9.878 -9.877 9.939 -24.549 0.628 -33.861z" />
    <glyph glyph-name="play-circle" unicode="&#xf144;" 
d="M371.7 210l-176 107c-15.8 8.8 -35.7 -2.5 -35.7 -21v-208c0 -18.4 19.8 -29.8 35.7 -21l176 101c16.4 9.1 16.4 32.8 0 42zM504 192c0 137 -111 248 -248 248s-248 -111 -248 -248s111 -248 248 -248s248 111 248 248zM56 192c0 110.5 89.5 200 200 200
s200 -89.5 200 -200s-89.5 -200 -200 -200s-200 89.5 -200 200z" />
    <glyph glyph-name="play" unicode="&#xf04b;" horiz-adv-x="448" 
d="M424.4 233.3l-352 208.1c-28.6 16.9 -72.4 0.5 -72.4 -41.3v-416.1c0 -37.5 40.7 -60.1 72.4 -41.3l352 208c31.4 18.5 31.5 64.1 0 82.6zM48 -5.5v395c0 4.6 5.1 7.5 9.1 5.2l334.2 -197.5c3.9 -2.3 3.9 -8 0 -10.3l-334.2 -197.6c-4 -2.3 -9.1 0.6 -9.1 5.2z" />
    <glyph glyph-name="plus" unicode="&#xf067;" horiz-adv-x="384" 
d="M368 224h-144v144c0 8.84 -7.16 16 -16 16h-32c-8.84 0 -16 -7.16 -16 -16v-144h-144c-8.84 0 -16 -7.16 -16 -16v-32c0 -8.84 7.16 -16 16 -16h144v-144c0 -8.84 7.16 -16 16 -16h32c8.84 0 16 7.16 16 16v144h144c8.84 0 16 7.16 16 16v32c0 8.84 -7.16 16 -16 16z" />
    <glyph glyph-name="portrait" unicode="&#xf3e0;" horiz-adv-x="384" 
d="M336 448h-288c-26.5 0 -48 -21.5 -48 -48v-416c0 -26.5 21.5 -48 48 -48h288c26.5 0 48 21.5 48 48v416c0 26.5 -21.5 48 -48 48zM336 -16h-288v416h288v-416zM192 192c35.3 0 64 28.7 64 64s-28.7 64 -64 64s-64 -28.7 -64 -64s28.7 -64 64 -64zM102.4 64h179.2
c12.4 0 22.4 8.6 22.4 19.2v19.2c0 31.8 -30.1 57.6 -67.2 57.6h-5c-12.3 -5.1 -25.7 -8 -39.8 -8s-27.6 2.9 -39.8 8h-5c-37.1 0 -67.2 -25.8 -67.2 -57.6v-19.2c0 -10.6 10 -19.2 22.4 -19.2z" />
    <glyph glyph-name="power-off" unicode="&#xf011;" 
d="M388.5 401.7c69.4 -44 115.5 -121.5 115.5 -209.7c0 -136.8 -110.8 -247.7 -247.5 -248c-136.5 -0.3 -248.3 111 -248.5 247.6c-0.1 88.4 46 166.1 115.5 210.1c5.8 3.7 13.5 1.8 16.9 -4.2l11.8 -20.9c3.1 -5.5 1.4 -12.5 -3.9 -15.9
c-55.5 -35.6 -92.3 -97.8 -92.3 -168.7c0 -110.5 89.5 -200 200 -200s200 89.5 200 200c0 70.9 -36.8 133.1 -92.3 168.6c-5.3 3.4 -7 10.4 -3.9 15.9l11.8 20.9c3.3 6.1 11.1 7.9 16.9 4.3zM280 172v264c0 6.6 -5.4 12 -12 12h-24c-6.6 0 -12 -5.4 -12 -12v-264
c0 -6.6 5.4 -12 12 -12h24c6.6 0 12 5.4 12 12z" />
    <glyph glyph-name="quote-left" unicode="&#xf10d;" horiz-adv-x="576" 
d="M504 224h-56v8c0 22.1 17.9 40 40 40h8c26.5 0 48 21.5 48 48v48c0 26.5 -21.5 48 -48 48h-8c-101.5 0 -184 -82.5 -184 -184v-192c0 -39.7 32.3 -72 72 -72h128c39.7 0 72 32.3 72 72v112c0 39.7 -32.3 72 -72 72zM528 40c0 -13.2 -10.8 -24 -24 -24h-128
c-13.2 0 -24 10.8 -24 24v192c0 75 61 136 136 136h8v-48h-8c-48.5 0 -88 -39.5 -88 -88v-56h104c13.2 0 24 -10.8 24 -24v-112zM200 224h-56v8c0 22.1 17.9 40 40 40h8c26.5 0 48 21.5 48 48v48c0 26.5 -21.5 48 -48 48h-8c-101.5 0 -184 -82.5 -184 -184v-192
c0 -39.7 32.3 -72 72 -72h128c39.7 0 72 32.3 72 72v112c0 39.7 -32.3 72 -72 72zM224 40c0 -13.2 -10.8 -24 -24 -24h-128c-13.2 0 -24 10.8 -24 24v192c0 75 61 136 136 136h8v-48h-8c-48.5 0 -88 -39.5 -88 -88v-56h104c13.2 0 24 -10.8 24 -24v-112z" />
    <glyph glyph-name="quote-right" unicode="&#xf10e;" horiz-adv-x="576" 
d="M200 416h-128c-39.7 0 -72 -32.3 -72 -72v-112c0 -39.7 32.3 -72 72 -72h56v-8c0 -22.1 -17.9 -40 -40 -40h-8c-26.5 0 -48 -21.5 -48 -48v-48c0 -26.5 21.5 -48 48 -48h8c101.5 0 184 82.5 184 184v192c0 39.7 -32.3 72 -72 72zM224 152c0 -75 -61 -136 -136 -136h-8v48
h8c48.5 0 88 39.5 88 88v56h-104c-13.2 0 -24 10.8 -24 24v112c0 13.2 10.8 24 24 24h128c13.2 0 24 -10.8 24 -24v-192zM504 416h-128c-39.7 0 -72 -32.3 -72 -72v-112c0 -39.7 32.3 -72 72 -72h56v-8c0 -22.1 -17.9 -40 -40 -40h-8c-26.5 0 -48 -21.5 -48 -48v-48
c0 -26.5 21.5 -48 48 -48h8c101.5 0 184 82.5 184 184v192c0 39.7 -32.3 72 -72 72zM528 152c0 -75 -61 -136 -136 -136h-8v48h8c48.5 0 88 39.5 88 88v56h-104c-13.2 0 -24 10.8 -24 24v112c0 13.2 10.8 24 24 24h128c13.2 0 24 -10.8 24 -24v-192z" />
    <glyph glyph-name="rectangle-landscape" unicode="&#xf2fa;" horiz-adv-x="510" 
d="M462 384h-414c-26.5 0 -48 -21.5 -48 -48v-288c0 -26.5 21.5 -48 48 -48h414c26.5 0 48 21.5 48 48v288c0 26.5 -21.5 48 -48 48zM456 48h-402c-3.3 0 -6 2.7 -6 6v276c0 3.3 2.7 6 6 6h402c3.3 0 6 -2.7 6 -6v-276c0 -3.3 -2.7 -6 -6 -6z" />
    <glyph glyph-name="rectangle-portrait" unicode="&#xf2fb;" horiz-adv-x="385" 
d="M385 -16v416c0 26.5 -21.5 48 -48 48h-289c-26.5 0 -48 -21.5 -48 -48v-416c0 -26.5 21.5 -48 48 -48h289c26.5 0 48 21.5 48 48zM48 -10v404c0 3.3 2.7 6 6 6h277c3.3 0 6 -2.7 6 -6v-404c0 -3.3 -2.7 -6 -6 -6h-277c-3.3 0 -6 2.7 -6 6z" />
    <glyph glyph-name="repeat-alt" unicode="&#xf364;" 
d="M481.162 283.674c19.478 -25.678 30.997 -57.709 30.836 -92.388c-0.388 -83.924 -69.637 -151.286 -153.562 -151.286h-182.436v-64c-0.001 -10.683 -12.949 -16.021 -20.485 -8.485l-88 87.995c-4.686 4.686 -4.687 12.284 0 16.971l88 88.005
c7.58 7.58 20.485 2.14 20.485 -8.485v-64h182.668c57.265 -0.001 105.392 46.845 105.332 104.11c-0.023 22.372 -7.149 43.111 -19.237 60.082c-3.431 4.817 -2.962 11.387 1.223 15.564c8.269 8.255 13.592 13.545 17.137 17.104c5.131 5.152 13.645 4.605 18.039 -1.187
zM48 191.889c-0.06 57.265 48.067 104.111 105.332 104.111h182.668v-64c0 -10.625 12.905 -16.066 20.485 -8.485l88 88.005c4.687 4.686 4.686 12.285 0 16.971l-88 87.995c-7.536 7.535 -20.484 2.197 -20.485 -8.486v-64h-182.436
c-83.925 0 -153.175 -67.362 -153.562 -151.286c-0.16 -34.679 11.358 -66.71 30.836 -92.388c4.394 -5.792 12.908 -6.339 18.039 -1.188c3.545 3.559 8.867 8.849 17.137 17.105c4.185 4.178 4.653 10.748 1.223 15.564c-12.088 16.971 -19.213 37.71 -19.237 60.082z" />
    <glyph glyph-name="repeat" unicode="&#xf363;" 
d="M512 192c0 -83.813 -68.187 -152 -152 -152h-223.465l55.762 -54.545c4.775 -4.67 4.817 -12.341 0.094 -17.064l-16.877 -16.877c-4.686 -4.686 -12.284 -4.686 -16.971 0l-104 104c-4.686 4.686 -4.686 12.284 0 16.971l104 104c4.686 4.686 12.284 4.686 16.971 0
l16.877 -16.877c4.723 -4.723 4.681 -12.393 -0.094 -17.064l-55.762 -54.544h223.465c57.346 0 104 46.654 104 104c0 19.452 -5.372 37.671 -14.706 53.258c-1.07889 1.79937 -1.69932 3.90449 -1.69932 6.15337c0 3.30842 1.33349 6.32022 3.50332 8.49063l17.392 17.392
c5.362 5.362 14.316 4.484 18.491 -1.847c15.807 -23.968 25.019 -52.65 25.019 -83.447zM62.706 138.742c-9.334 15.587 -14.706 33.806 -14.706 53.258c0 57.346 46.654 104 104 104h223.465l-55.762 -54.545c-4.775 -4.67 -4.817 -12.341 -0.094 -17.064l16.877 -16.877
c4.686 -4.686 12.284 -4.686 16.971 0l104 104c4.686 4.686 4.686 12.284 0 16.971l-104 104c-4.686 4.686 -12.284 4.686 -16.971 0l-16.877 -16.877c-4.723 -4.723 -4.681 -12.393 0.094 -17.064l55.762 -54.544h-223.465c-83.813 0 -152 -68.187 -152 -152
c0 -30.797 9.212 -59.479 25.019 -83.447c4.175 -6.331 13.129 -7.209 18.491 -1.847l17.392 17.392c2.16982 2.17041 3.5126 5.16768 3.5126 8.47611c0 2.24888 -0.629712 4.36852 -1.7086 6.16789z" />
    <glyph glyph-name="reply-all" unicode="&#xf122;" horiz-adv-x="640" 
d="M142.06 174.06l160 -159.97c30.02 -30.02 81.94 -8.98 81.94 33.94v71.08c118.18 -4.94 121.95 -30.99 104.44 -89.17c-13.17 -43.75 36.21 -78.71 73.1 -53.43c50.61 34.7 78.46 79.33 78.46 143.11c0 142.4 -127.16 171.02 -256 175.61v72.73
c0 42.88 -51.89 64 -81.94 33.94l-160 -159.96c-18.75 -18.74 -18.75 -49.14 0 -67.88zM176 208l160 160v-120c120.616 0 256 -6.513 256 -128.38c0 -55.8 -28.79 -83.87 -57.6 -103.62c41.002 136.247 -60.829 152 -198.4 152v-120zM14.059 241.941l160 159.962
c20.389 20.389 50.822 17.22 68.29 -0.31l-194.349 -193.593l194.35 -193.603c-17.474 -17.531 -47.921 -20.675 -68.291 -0.306l-160 159.967c-18.745 18.746 -18.745 49.138 0 67.883z" />
    <glyph glyph-name="reply" unicode="&#xf3e5;" horiz-adv-x="576" 
d="M14.062 190.06l175.998 -175.94c30.21 -30.21 81.94 -8.7 81.94 33.94v78.28c146.59 -8.54 158.53 -50.199 134.18 -127.879c-13.65 -43.56 35.07 -78.89 72.19 -54.46c59.61 39.231 97.63 100.199 97.63 173.949c0 170.37 -166.04 197.15 -304 201.3v80.703
c0 42.72 -51.79 64.09 -81.94 33.94l-175.998 -175.953c-18.75 -18.74 -18.75 -49.14 0 -67.88zM48 224l176 176v-128.03c143.181 -0.63 304 -11.778 304 -154.02c0 -66.96 -40 -109.95 -76.02 -133.65c49.46 157.789 -63.459 189.82 -227.98 191.61v-127.91z" />
    <glyph glyph-name="retweet-alt" unicode="&#xf361;" horiz-adv-x="640" 
d="M388.461 60.485c7.56 -7.56 2.206 -20.485 -8.485 -20.485h-251.976c-13.255 0 -24 10.745 -24 24v212.813l-72.162 0.001c-10.683 0.001 -16.022 12.949 -8.485 20.485l96.156 96.156c4.686 4.686 12.284 4.687 16.971 0l96.16 -96.16
c7.58 -7.58 2.14 -20.485 -8.485 -20.485l-72.155 0.002v-188.812h203.976c3.183 0 6.235 -1.264 8.485 -3.515zM608.162 107.185l-72.162 0.002v212.813c0 13.255 -10.745 24 -24 24h-251.976c-10.691 0 -16.045 -12.926 -8.485 -20.485l24 -24
c2.17216 -2.172 5.17368 -3.51462 8.485 -3.515h203.976v-188.812l-72.154 0.001c-10.625 0 -16.066 -12.905 -8.485 -20.485l96.16 -96.16c4.686 -4.687 12.285 -4.686 16.971 0l96.156 96.156c7.535 7.536 2.197 20.485 -8.486 20.485z" />
    <glyph glyph-name="retweet" unicode="&#xf079;" horiz-adv-x="640" 
d="M624.485 94.544l-104 -104c-4.686 -4.686 -12.284 -4.686 -16.971 0l-104 104c-4.686 4.686 -4.686 12.284 0 16.971l16.877 16.877c4.723 4.723 12.393 4.681 17.064 -0.094l54.545 -55.763v223.465h-203.976c-3.31113 0 -6.31348 1.34274 -8.485 3.515l-24 24
c-7.56 7.56 -2.206 20.485 8.485 20.485h251.976c13.255 0 24 -10.745 24 -24v-247.465l54.545 55.762c4.671 4.775 12.341 4.817 17.064 0.094l16.877 -16.877c4.686 -4.686 4.686 -12.284 -0.001 -16.97zM364.461 84.485c-2.17216 2.172 -5.17368 3.51462 -8.485 3.515
h-203.976v223.465l54.545 -55.762c4.671 -4.775 12.341 -4.817 17.064 -0.094l16.877 16.877c4.686 4.686 4.686 12.284 0 16.971l-104 104c-4.686 4.686 -12.284 4.686 -16.971 0l-104 -104c-4.686 -4.686 -4.686 -12.284 0 -16.971l16.877 -16.877
c4.723 -4.723 12.393 -4.681 17.064 0.094l54.544 55.762v-247.465c0 -13.255 10.745 -24 24 -24h251.976c10.691 0 16.045 12.926 8.485 20.485z" />
    </font>
</defs>
</svg>
